<?xml version="1.0" encoding="utf-8"?>
<!-- Generator: Adobe Illustrator 24.3.0, SVG Export Plug-In . SVG Version: 6.00 Build 0)  -->
<svg version="1.1" id="Layer_1" xmlns="http://www.w3.org/2000/svg" xmlns:xlink="http://www.w3.org/1999/xlink" x="0px" y="0px"
	 viewBox="0 0 100 100" style="enable-background:new 0 0 100 100;" xml:space="preserve">
<style type="text/css">
	.st0{display:none;}
	.st1{display:inline;}
	.st2{fill:none;}
</style>
<g>
	<g class="st0">
		<path class="st1" d="M13.1,39.6v13.7h-2.8l-5.5-9.2v9.2H2V39.6h2.8l5.5,9.2v-9.2H13.1z"/>
		<path class="st1" d="M30.6,46.1v0.6c0,1.4-0.2,2.6-0.7,3.6c-0.5,1-1.2,1.8-2,2.3c-0.9,0.5-1.9,0.8-3,0.8c-1.1,0-2.1-0.3-3-0.8
			c-0.9-0.5-1.6-1.3-2.1-2.3c-0.5-1-0.7-2.2-0.7-3.6v-0.6c0-1.4,0.2-2.6,0.7-3.6c0.5-1,1.2-1.8,2.1-2.3s1.9-0.8,3-0.8
			c1.1,0,2.2,0.3,3,0.8c0.9,0.5,1.6,1.3,2.1,2.3S30.6,44.7,30.6,46.1z M27.7,46.8v-0.7c0-1-0.1-1.8-0.4-2.4s-0.6-1.2-1-1.5
			c-0.4-0.3-1-0.5-1.6-0.5c-0.6,0-1.2,0.2-1.6,0.5c-0.4,0.3-0.8,0.8-1,1.5c-0.2,0.7-0.3,1.5-0.3,2.4v0.7c0,1,0.1,1.8,0.4,2.4
			c0.2,0.7,0.6,1.2,1,1.5s1,0.5,1.6,0.5c0.6,0,1.2-0.2,1.6-0.5s0.8-0.8,1-1.5C27.6,48.6,27.7,47.7,27.7,46.8z"/>
		<path class="st1" d="M36.5,39.6h5.1c1,0,1.9,0.2,2.7,0.5c0.8,0.3,1.3,0.8,1.7,1.4c0.4,0.6,0.6,1.4,0.6,2.3c0,0.7-0.1,1.4-0.4,1.9
			c-0.2,0.5-0.6,1-1,1.3c-0.4,0.3-1,0.6-1.6,0.8l-0.9,0.5h-4.4l0-2.2h3.3c0.5,0,0.9-0.1,1.2-0.3c0.3-0.2,0.6-0.4,0.7-0.7
			c0.2-0.3,0.2-0.7,0.2-1.1c0-0.7-0.2-1.2-0.5-1.6c-0.4-0.4-0.9-0.6-1.7-0.6h-2.3v11.5h-2.8V39.6z M44.1,53.3L41,47.2l3,0l3.2,6v0.1
			H44.1z"/>
		<path class="st1" d="M52.6,39.6H55l0.4,9.8v3.9h-2.8V39.6z M53.9,39.6h2.4l3.5,10l3.5-10h2.4l-4.9,13.7h-1.9L53.9,39.6z
			 M64.6,39.6H67v13.7h-2.8v-3.9L64.6,39.6z"/>
		<path class="st1" d="M78.9,42l-3.7,11.3h-3l5.1-13.7h1.9L78.9,42z M81.8,48.2v2.2h-7.2v-2.2H81.8z M82,53.3L78.2,42l-0.3-2.3h1.9
			L85,53.3H82z"/>
		<path class="st1" d="M92.9,39.6v13.7h-2.8V39.6H92.9z M98.9,51.1v2.2H92v-2.2H98.9z"/>
	</g>
</g>
<g>
	<g>
		<path d="M10.9,25.4c1.3,0.8,1.9,1.2,3.1,2c-0.1,0.2-0.2,0.2-0.3,0.4c-1.3-0.8-1.9-1.2-3.1-2C10.7,25.6,10.8,25.5,10.9,25.4z"/>
		<path d="M12.1,24.2c0.3,0.2,0.4,0.3,0.6,0.4c0.2-0.2,0.2-0.3,0.4-0.5c0.1,0.1,0.2,0.1,0.3,0.2c-0.2,0.2-0.2,0.3-0.4,0.5
			c0.5,0.3,0.7,0.5,1.2,0.8c0.3,0.2,0.5,0.2,0.6,0c0.1-0.1,0.1-0.2,0.1-0.2c0.1,0.1,0.2,0.1,0.3,0.2c0,0.1-0.1,0.2-0.2,0.4
			c-0.1,0.2-0.3,0.3-0.5,0.3c-0.2,0-0.4-0.1-0.7-0.2c-0.5-0.3-0.7-0.5-1.2-0.8c-0.1,0.1-0.1,0.2-0.2,0.3c-0.1-0.1-0.2-0.1-0.3-0.2
			c0.1-0.1,0.1-0.2,0.2-0.3c-0.2-0.1-0.3-0.2-0.5-0.4C12,24.5,12,24.4,12.1,24.2z"/>
		<path d="M14,21.9c0.1,0.1,0.2,0.3,0,0.4c-0.1,0.1-0.3,0.1-0.4,0c-0.1-0.1-0.2-0.3,0-0.4C13.7,21.8,13.9,21.8,14,21.9z M16.3,24.4
			c-0.8-0.7-1.3-1-2.1-1.6c0.1-0.1,0.2-0.2,0.3-0.4c0.8,0.7,1.3,1,2.1,1.6C16.5,24.2,16.5,24.2,16.3,24.4z"/>
		<path d="M16.7,23.2c0.2,0,0.4-0.2,0.6-0.3c0.2-0.3,0.2-0.5,0-0.6c-0.2-0.1-0.4-0.1-0.7,0c-0.5,0.2-0.8,0.2-1,0
			c-0.3-0.3-0.4-0.8,0-1.2c0.2-0.2,0.4-0.3,0.6-0.4c0.1,0.1,0.1,0.2,0.2,0.3c-0.1,0-0.3,0.1-0.5,0.3c-0.2,0.2-0.2,0.4,0,0.6
			c0.2,0.1,0.3,0.1,0.7-0.1c0.4-0.2,0.8-0.2,1.1,0c0.4,0.3,0.4,0.8-0.1,1.2c-0.2,0.2-0.4,0.4-0.6,0.4C16.8,23.4,16.8,23.3,16.7,23.2
			z"/>
		<path d="M20.4,20.2c-0.1-0.1-0.2-0.1-0.3-0.2c0,0,0,0,0,0c0,0.2,0,0.6-0.3,0.8c-0.4,0.4-0.9,0.3-1.1,0c-0.5-0.4-0.3-1.1,0.5-1.8
			c0,0,0,0,0,0c-0.2-0.2-0.5-0.4-0.9,0c-0.2,0.2-0.3,0.4-0.4,0.6c-0.1-0.1-0.2-0.1-0.3-0.1c0.1-0.2,0.2-0.5,0.5-0.8
			c0.6-0.5,1.1-0.3,1.5,0.1c0.3,0.3,0.4,0.4,0.7,0.7c0.2,0.2,0.3,0.3,0.5,0.4C20.6,20,20.6,20,20.4,20.2z M19.4,19.3
			c-0.4,0.3-0.8,0.8-0.4,1.2c0.2,0.2,0.5,0.2,0.7,0c0.3-0.2,0.3-0.5,0.2-0.7c0,0-0.1-0.1-0.1-0.1C19.6,19.5,19.6,19.4,19.4,19.3z"/>
		<path d="M19.7,15.8c0.2-0.1,0.2-0.2,0.4-0.3c1,1.2,1.5,1.7,2.5,2.9c-0.2,0.1-0.2,0.2-0.4,0.3C21.2,17.5,20.7,16.9,19.7,15.8z"/>
		<path d="M24.3,15.5c0.6,0.8,0.3,1.5-0.2,1.9c-0.6,0.4-1.4,0.3-1.9-0.3c-0.5-0.7-0.4-1.4,0.2-1.9C23,14.7,23.8,14.8,24.3,15.5z
			 M22.6,16.7c0.4,0.5,0.9,0.6,1.3,0.3c0.4-0.3,0.4-0.8,0-1.3c-0.3-0.3-0.8-0.7-1.3-0.3C22.2,15.8,22.3,16.3,22.6,16.7z"/>
		<path d="M24.5,14.7c-0.2-0.2-0.3-0.4-0.4-0.6c0.1-0.1,0.2-0.1,0.4-0.2c0.1,0.1,0.2,0.2,0.3,0.3c0,0,0,0,0,0c0-0.3,0.1-0.6,0.5-0.9
			c0.3-0.2,0.9-0.3,1.4,0.4c0.4,0.5,0.5,0.8,0.9,1.3c-0.2,0.1-0.2,0.2-0.4,0.3c-0.3-0.5-0.5-0.7-0.8-1.2c-0.2-0.3-0.6-0.6-1-0.3
			c-0.3,0.2-0.4,0.5-0.3,0.7c0,0.1,0.1,0.1,0.1,0.2c0.4,0.5,0.5,0.8,0.9,1.3c-0.2,0.1-0.2,0.2-0.4,0.3
			C25.1,15.6,24.9,15.3,24.5,14.7z"/>
		<path d="M28.9,11.4c0.1,0.2,0.2,0.4,0.3,0.6c0.3,0.5,0.5,0.8,0.8,1.3c0.3,0.5,0.4,0.9,0.3,1.2c-0.1,0.3-0.4,0.6-0.7,0.7
			c-0.3,0.1-0.6,0.2-0.9,0.2c0-0.1,0-0.2-0.1-0.4c0.2,0,0.5,0,0.8-0.2c0.4-0.2,0.6-0.6,0.3-1.2c-0.1-0.1-0.1-0.2-0.1-0.3
			c0,0,0,0,0,0c0,0.3-0.2,0.6-0.5,0.8c-0.6,0.3-1.3,0.1-1.6-0.6c-0.4-0.8-0.2-1.5,0.4-1.8c0.4-0.2,0.8-0.1,1,0c0,0,0,0,0,0
			c-0.1-0.1-0.1-0.2-0.2-0.4C28.6,11.5,28.7,11.4,28.9,11.4z M28.9,12.5c0-0.1-0.1-0.1-0.1-0.2c-0.2-0.2-0.5-0.3-0.9-0.1
			c-0.4,0.2-0.5,0.7-0.2,1.2c0.3,0.4,0.7,0.7,1.2,0.4c0.3-0.1,0.4-0.4,0.4-0.7c0-0.1-0.1-0.2-0.1-0.2C29.1,12.7,29,12.6,28.9,12.5z"
			/>
		<path d="M31.6,11.6c0.3,0.6,0.8,0.7,1.2,0.5c0.3-0.1,0.5-0.3,0.6-0.4c0.1,0.1,0.1,0.2,0.2,0.3c-0.1,0.1-0.4,0.3-0.8,0.5
			c-0.8,0.3-1.4,0-1.8-0.7c-0.3-0.7-0.1-1.5,0.6-1.8c0.8-0.3,1.3,0.3,1.5,0.7c0,0.1,0.1,0.2,0.1,0.2C32.6,11.2,32.3,11.3,31.6,11.6z
			 M32.8,10.8c-0.1-0.3-0.4-0.7-0.9-0.4c-0.5,0.2-0.5,0.7-0.4,1C32,11.1,32.2,11,32.8,10.8z"/>
		<path d="M34.1,11.4c0.2,0,0.4,0,0.7,0c0.3-0.1,0.4-0.3,0.4-0.5c-0.1-0.2-0.3-0.3-0.6-0.3c-0.5,0-0.8-0.2-0.9-0.4
			c-0.1-0.4,0.1-0.8,0.6-1C34.4,9,34.7,9,34.9,9c0,0.1,0,0.2,0,0.4c-0.1,0-0.3,0-0.6,0C34,9.5,33.9,9.7,34,9.9
			c0.1,0.2,0.3,0.2,0.6,0.2c0.5,0,0.8,0.1,0.9,0.5c0.2,0.4-0.1,0.8-0.7,1.1c-0.3,0.1-0.6,0.1-0.8,0.1C34.1,11.6,34.1,11.6,34.1,11.4
			z"/>
		<path d="M35.9,7.8C36,8.1,36,8.2,36.1,8.5c0.3-0.1,0.4-0.1,0.7-0.2c0,0.1,0.1,0.2,0.1,0.3c-0.3,0.1-0.4,0.1-0.7,0.2
			c0.2,0.5,0.3,0.8,0.4,1.3c0.1,0.3,0.2,0.4,0.5,0.4c0.1,0,0.2-0.1,0.3-0.1c0.1,0.1,0.1,0.2,0.1,0.3c-0.1,0.1-0.2,0.1-0.4,0.2
			c-0.2,0.1-0.4,0-0.6,0c-0.2-0.1-0.3-0.3-0.4-0.6C36.1,9.8,36,9.5,35.8,9c-0.2,0-0.2,0.1-0.4,0.1c0-0.1-0.1-0.2-0.1-0.3
			c0.2,0,0.2-0.1,0.4-0.1c-0.1-0.2-0.1-0.4-0.2-0.6C35.7,8,35.7,7.9,35.9,7.8z"/>
		<path d="M39.6,10.3c0-0.1-0.1-0.2-0.1-0.3c0,0,0,0,0,0c-0.1,0.2-0.3,0.5-0.7,0.6c-0.5,0.1-0.9-0.2-1-0.5c-0.2-0.6,0.3-1.1,1.3-1.3
			c0,0,0,0,0-0.1c-0.1-0.2-0.2-0.6-0.8-0.4c-0.2,0.1-0.5,0.2-0.6,0.4c-0.1-0.1-0.1-0.2-0.2-0.3c0.2-0.2,0.5-0.4,0.8-0.4
			c0.8-0.2,1.1,0.3,1.3,0.8c0.1,0.4,0.2,0.6,0.3,0.9c0.1,0.2,0.1,0.4,0.2,0.6C39.8,10.2,39.7,10.2,39.6,10.3z M39.2,9
			c-0.5,0.1-1.1,0.4-1,0.8c0.1,0.3,0.3,0.4,0.6,0.3c0.3-0.1,0.5-0.3,0.5-0.6c0-0.1,0-0.1,0-0.2C39.2,9.3,39.2,9.2,39.2,9z"/>
		<path d="M40.6,10c0-0.2-0.1-0.4-0.1-0.7c-0.2-1.2-0.4-1.8-0.6-3.1c0.2,0,0.3-0.1,0.5-0.1c0.1,0.6,0.2,1,0.3,1.6c0,0,0,0,0,0
			c0.1-0.3,0.4-0.6,0.8-0.6c0.7-0.1,1.2,0.3,1.4,1.1c0.2,0.9-0.3,1.5-0.9,1.6c-0.4,0.1-0.7,0-1-0.3c0,0,0,0,0,0c0,0.2,0,0.3,0.1,0.4
			C40.9,10,40.8,10,40.6,10z M40.9,8.9C40.9,9,41,9,41,9.1c0.2,0.3,0.5,0.5,0.8,0.4c0.5-0.1,0.7-0.5,0.6-1.1c-0.1-0.5-0.5-0.9-1-0.8
			c-0.3,0.1-0.6,0.3-0.6,0.7c0,0.1,0,0.1,0,0.2C40.9,8.6,40.9,8.7,40.9,8.9z"/>
		<path d="M43.2,5.8c0.2,0,0.3,0,0.5-0.1c0.2,1.5,0.3,2.2,0.5,3.7c-0.2,0-0.3,0-0.5,0.1C43.5,8,43.4,7.2,43.2,5.8z"/>
		<path d="M45.2,6c0,0.2-0.1,0.3-0.3,0.3c-0.2,0-0.3-0.1-0.3-0.3c0-0.2,0.1-0.3,0.3-0.3C45,5.7,45.2,5.8,45.2,6z M45,9.3
			c-0.1-1-0.2-1.5-0.3-2.6c0.2,0,0.3,0,0.5-0.1c0.1,1,0.2,1.5,0.3,2.6C45.3,9.3,45.2,9.3,45,9.3z"/>
		<path d="M46.2,8.7c0.2,0.1,0.4,0.2,0.7,0.1c0.4,0,0.5-0.2,0.5-0.4c0-0.2-0.2-0.3-0.5-0.4C46.3,7.9,46,7.7,46,7.4
			c0-0.4,0.3-0.8,0.9-0.8c0.3,0,0.5,0,0.7,0.1c0,0.1-0.1,0.2-0.1,0.3c-0.1-0.1-0.3-0.1-0.6-0.1c-0.3,0-0.4,0.2-0.4,0.4
			c0,0.2,0.2,0.3,0.5,0.4c0.5,0.1,0.7,0.3,0.8,0.7c0,0.5-0.3,0.8-1,0.8c-0.3,0-0.6,0-0.8-0.1C46.1,9,46.1,8.9,46.2,8.7z"/>
		<path d="M48.4,5.3c0.2,0,0.3,0,0.5,0c0,0.6,0,1,0,1.6c0,0,0,0,0,0c0.1-0.1,0.2-0.3,0.3-0.3c0.1-0.1,0.3-0.1,0.5-0.1
			c0.4,0,0.9,0.2,1,1.1c0,0.6,0,0.9,0,1.5c-0.2,0-0.3,0-0.5,0c0-0.6,0-0.9,0-1.5c0-0.4-0.2-0.8-0.6-0.8c-0.3,0-0.6,0.2-0.6,0.5
			c0,0.1,0,0.1,0,0.2c0,0.6,0,0.9,0,1.6c-0.2,0-0.3,0-0.5,0C48.4,7.6,48.4,6.8,48.4,5.3z"/>
		<path d="M51.8,7.9c0,0.6,0.4,0.9,0.9,0.9c0.3,0,0.6,0,0.8-0.1c0,0.1,0,0.2,0.1,0.3c-0.2,0.1-0.5,0.1-0.9,0.1
			c-0.8,0-1.3-0.6-1.2-1.4c0-0.8,0.6-1.4,1.3-1.3c0.9,0,1.1,0.8,1,1.3c0,0.1,0,0.2,0,0.2C52.9,8,52.6,8,51.8,7.9z M53.3,7.7
			c0-0.3-0.1-0.8-0.6-0.8c-0.5,0-0.7,0.4-0.8,0.7C52.4,7.6,52.7,7.6,53.3,7.7z"/>
		<path d="M56.9,5.8c-0.2,1.2-0.2,1.9-0.4,3.1c0,0.2-0.1,0.5-0.1,0.7c-0.2,0-0.3,0-0.4-0.1c0-0.2,0-0.3,0-0.4c0,0,0,0,0,0
			c-0.2,0.3-0.5,0.4-1,0.4c-0.6-0.1-1.1-0.7-1-1.4c0.1-0.8,0.7-1.3,1.4-1.2c0.4,0,0.7,0.3,0.8,0.5c0,0,0,0,0,0
			c0.1-0.6,0.1-0.9,0.2-1.5C56.7,5.8,56.7,5.8,56.9,5.8z M56.2,8c0-0.1,0-0.1,0-0.2c0-0.3-0.3-0.6-0.6-0.6C55,7.1,54.7,7.5,54.6,8
			c-0.1,0.5,0.1,1,0.7,1c0.3,0,0.7-0.1,0.8-0.5c0-0.1,0-0.1,0-0.2C56.1,8.2,56.1,8.1,56.2,8z"/>
		<path d="M58.4,9.9c0.2-0.9,0.3-1.3,0.5-2.2c-0.1,0-0.2,0-0.4-0.1c0-0.1,0-0.2,0.1-0.3c0.1,0,0.2,0,0.4,0.1c0,0,0-0.1,0-0.1
			c0.1-0.4,0.2-0.7,0.5-0.8c0.2-0.1,0.5-0.2,0.7-0.1c0.2,0,0.3,0.1,0.4,0.2c-0.1,0.1-0.1,0.2-0.1,0.3c-0.1,0-0.2-0.1-0.3-0.1
			c-0.4-0.1-0.6,0.2-0.7,0.6c0,0.1,0,0.1,0,0.1c0.3,0.1,0.4,0.1,0.6,0.1c0,0.1,0,0.2-0.1,0.3c-0.3-0.1-0.4-0.1-0.6-0.1
			c-0.2,0.9-0.3,1.3-0.5,2.2C58.7,9.9,58.6,9.9,58.4,9.9z"/>
		<path d="M61.4,10.5c0-0.1,0-0.2,0-0.3c0,0,0,0,0,0c-0.2,0.2-0.5,0.3-0.9,0.2c-0.5-0.1-0.7-0.6-0.6-0.9c0.2-0.6,0.8-0.8,1.8-0.5
			c0,0,0,0,0-0.1c0.1-0.2,0.1-0.6-0.4-0.7c-0.2-0.1-0.5-0.1-0.7,0c0-0.1,0-0.2,0-0.3c0.3-0.1,0.6-0.1,0.9,0c0.8,0.2,0.8,0.8,0.7,1.3
			C62.1,9.5,62,9.7,61.9,10c-0.1,0.2-0.1,0.4-0.1,0.6C61.6,10.6,61.5,10.6,61.4,10.5z M61.6,9.3c-0.5-0.1-1.1-0.2-1.3,0.3
			c-0.1,0.3,0.1,0.5,0.3,0.5c0.3,0.1,0.6-0.1,0.7-0.3c0,0,0.1-0.1,0.1-0.1C61.6,9.5,61.6,9.4,61.6,9.3z"/>
		<path d="M64.3,11.3c-0.1,0-0.4,0-0.8-0.1c-0.8-0.2-1.1-0.9-0.9-1.6c0.3-0.8,1-1.1,1.8-0.9C64.8,8.8,65,8.9,65.1,9
			C65,9.2,65,9.2,64.9,9.3c-0.1-0.1-0.2-0.2-0.5-0.3c-0.6-0.2-1,0.1-1.2,0.6c-0.2,0.6,0.1,1,0.6,1.2c0.3,0.1,0.5,0.1,0.6,0.1
			C64.3,11.1,64.3,11.2,64.3,11.3z"/>
		<path d="M66.6,8.7c-0.1,0.3-0.2,0.4-0.3,0.7c0.3,0.1,0.4,0.1,0.7,0.2c-0.1,0.1-0.1,0.2-0.1,0.3c-0.3-0.1-0.4-0.1-0.7-0.2
			c-0.2,0.5-0.3,0.8-0.5,1.3c-0.1,0.3-0.1,0.5,0.2,0.6c0.1,0,0.2,0.1,0.3,0.1c0,0.1-0.1,0.2-0.1,0.3c-0.1,0-0.3,0-0.4-0.1
			c-0.2-0.1-0.4-0.2-0.4-0.4c-0.1-0.2,0-0.4,0.1-0.7c0.2-0.5,0.3-0.8,0.5-1.3c-0.2-0.1-0.2-0.1-0.4-0.1c0.1-0.1,0.1-0.2,0.1-0.3
			c0.2,0.1,0.2,0.1,0.4,0.1C66,9,66,8.9,66.1,8.6C66.3,8.7,66.4,8.7,66.6,8.7z"/>
		<path d="M69.5,9.9c-0.1,0.3-0.2,0.4-0.3,0.7c0.3,0.1,0.4,0.2,0.6,0.3c-0.1,0.1-0.1,0.2-0.2,0.3c-0.3-0.1-0.4-0.2-0.6-0.3
			c-0.2,0.5-0.4,0.8-0.6,1.3c-0.1,0.3-0.1,0.5,0.1,0.6c0.1,0.1,0.2,0.1,0.3,0.1c-0.1,0.1-0.1,0.2-0.1,0.3c-0.1,0-0.2,0-0.4-0.1
			c-0.2-0.1-0.3-0.2-0.4-0.4c-0.1-0.2,0-0.4,0.1-0.7c0.2-0.5,0.4-0.8,0.6-1.3c-0.2-0.1-0.2-0.1-0.4-0.2c0.1-0.1,0.1-0.2,0.2-0.3
			c0.2,0.1,0.2,0.1,0.4,0.2c0.1-0.2,0.2-0.3,0.3-0.6C69.3,9.8,69.4,9.9,69.5,9.9z"/>
		<path d="M71,10.1c0.2,0.1,0.3,0.1,0.4,0.2c-0.3,0.6-0.5,0.9-0.8,1.4c0,0,0,0,0,0c0.1-0.1,0.3-0.1,0.5-0.1c0.2,0,0.3,0,0.5,0.1
			c0.3,0.2,0.7,0.6,0.3,1.4c-0.3,0.5-0.5,0.8-0.8,1.4c-0.2-0.1-0.3-0.1-0.4-0.2c0.3-0.5,0.4-0.8,0.7-1.3c0.2-0.4,0.2-0.7-0.2-1
			c-0.3-0.1-0.6-0.1-0.8,0.1c-0.1,0-0.1,0.1-0.1,0.2c-0.3,0.5-0.5,0.8-0.8,1.4c-0.2-0.1-0.3-0.1-0.4-0.2
			C69.9,12.1,70.3,11.4,71,10.1z"/>
		<path d="M73.1,15.5c0.1-0.1,0.1-0.2,0.1-0.3c0,0,0,0,0,0c-0.2,0.1-0.6,0.1-0.9-0.1c-0.5-0.3-0.5-0.7-0.3-1c0.3-0.5,1-0.5,1.9,0
			c0,0,0,0,0,0c0.1-0.2,0.3-0.5-0.2-0.8c-0.2-0.1-0.5-0.2-0.7-0.2c0-0.1,0-0.2,0.1-0.3c0.3,0,0.6,0.1,0.9,0.3c0.7,0.4,0.6,1,0.3,1.4
			c-0.2,0.3-0.3,0.5-0.5,0.8c-0.1,0.2-0.2,0.4-0.3,0.5C73.3,15.7,73.3,15.6,73.1,15.5z M73.8,14.4c-0.4-0.3-1-0.5-1.3-0.1
			c-0.2,0.3-0.1,0.5,0.1,0.6c0.3,0.2,0.6,0.1,0.8,0c0,0,0.1-0.1,0.1-0.1C73.6,14.6,73.7,14.5,73.8,14.4z"/>
		<path d="M76.5,13.7c-0.2,0.2-0.3,0.4-0.4,0.6c0.2,0.2,0.3,0.2,0.6,0.4c-0.1,0.1-0.1,0.2-0.2,0.3c-0.2-0.2-0.3-0.2-0.6-0.4
			c-0.3,0.5-0.5,0.7-0.8,1.1c-0.2,0.3-0.2,0.5,0,0.6c0.1,0.1,0.2,0.1,0.3,0.1c-0.1,0.1-0.1,0.2-0.2,0.3c-0.1,0-0.2-0.1-0.4-0.2
			c-0.2-0.1-0.3-0.3-0.3-0.4c0-0.2,0.1-0.4,0.2-0.7c0.3-0.5,0.5-0.7,0.8-1.2c-0.1-0.1-0.2-0.1-0.3-0.2c0.1-0.1,0.1-0.2,0.2-0.3
			c0.1,0.1,0.2,0.1,0.3,0.2c0.1-0.2,0.2-0.3,0.4-0.5C76.2,13.6,76.3,13.6,76.5,13.7z"/>
		<path d="M77.6,18.7c0.1-0.1,0.1-0.2,0.2-0.3c0,0,0,0,0,0c-0.3,0.1-0.6,0-0.9-0.2c-0.4-0.3-0.4-0.8-0.1-1.1
			c0.4-0.5,1.1-0.4,1.9,0.2c0,0,0,0,0,0c0.1-0.2,0.3-0.5-0.1-0.8c-0.2-0.2-0.4-0.3-0.7-0.3c0-0.1,0.1-0.2,0.1-0.3
			c0.3,0,0.6,0.2,0.8,0.4c0.6,0.5,0.4,1,0.1,1.4c-0.3,0.3-0.4,0.4-0.6,0.7c-0.1,0.2-0.3,0.3-0.4,0.5C77.8,18.8,77.7,18.8,77.6,18.7z
			 M78.4,17.6c-0.4-0.3-0.9-0.6-1.3-0.2c-0.2,0.2-0.1,0.5,0.1,0.6c0.3,0.2,0.6,0.2,0.8,0.1c0,0,0.1-0.1,0.1-0.1
			C78.2,17.8,78.3,17.7,78.4,17.6z"/>
		<path d="M80.6,18.8c0.2-0.2,0.4-0.4,0.6-0.6c0.1,0.1,0.2,0.2,0.3,0.3c-0.1,0.2-0.2,0.2-0.4,0.4c0,0,0,0,0,0
			c0.3-0.2,0.7-0.1,0.9,0.1c0,0,0.1,0.1,0.1,0.1c-0.1,0.1-0.2,0.2-0.3,0.3c0,0-0.1-0.1-0.1-0.1c-0.2-0.2-0.6-0.2-0.9,0
			c-0.1,0-0.1,0.1-0.2,0.1c-0.4,0.4-0.6,0.6-1,1c-0.1-0.1-0.2-0.2-0.4-0.3C79.8,19.6,80.1,19.3,80.6,18.8z"/>
		<path d="M81.7,20.6c-0.5,0.4-0.4,0.9,0,1.3c0.2,0.2,0.4,0.3,0.6,0.4c-0.1,0.1-0.1,0.2-0.2,0.3c-0.2-0.1-0.4-0.2-0.7-0.5
			c-0.6-0.6-0.5-1.3,0.1-1.8c0.6-0.5,1.4-0.6,1.9-0.1c0.6,0.6,0.2,1.3-0.2,1.6c-0.1,0.1-0.1,0.1-0.2,0.1
			C82.4,21.4,82.2,21.1,81.7,20.6z M82.9,21.4c0.2-0.2,0.5-0.6,0.1-1c-0.3-0.3-0.8-0.2-1.1,0C82.3,20.8,82.5,21,82.9,21.4z"/>
		<path d="M83.4,24.3c0.1-0.1,0.1-0.1,0.2-0.2c0,0,0,0,0,0c-0.3,0-0.6-0.1-0.8-0.4c-0.4-0.4-0.2-0.8,0.1-1.1
			c0.5-0.4,1.1-0.2,1.8,0.6c0,0,0,0,0,0c0.2-0.1,0.4-0.4,0.1-0.8c-0.2-0.2-0.4-0.3-0.6-0.4c0.1-0.1,0.1-0.2,0.2-0.3
			c0.3,0.1,0.5,0.3,0.8,0.5c0.5,0.6,0.2,1.1-0.2,1.4c-0.3,0.2-0.5,0.4-0.8,0.6c-0.2,0.1-0.3,0.3-0.5,0.4
			C83.5,24.5,83.5,24.4,83.4,24.3z M84.4,23.4c-0.3-0.4-0.8-0.8-1.2-0.5c-0.2,0.2-0.2,0.4-0.1,0.6c0.2,0.3,0.5,0.3,0.8,0.2
			c0,0,0.1,0,0.1-0.1C84.2,23.5,84.2,23.5,84.4,23.4z"/>
		<path d="M88.7,24.7c-1.1,0.7-1.6,1.1-2.6,1.8c-0.2,0.1-0.4,0.3-0.5,0.4c-0.1-0.1-0.2-0.2-0.3-0.3c0.1-0.1,0.2-0.2,0.4-0.3
			c0,0,0,0,0,0c-0.3,0.1-0.7-0.1-1-0.4c-0.4-0.5-0.2-1.2,0.4-1.7c0.7-0.5,1.5-0.4,1.9,0.1c0.2,0.3,0.3,0.6,0.1,0.9c0,0,0,0,0,0
			c0.5-0.4,0.8-0.5,1.3-0.9C88.5,24.4,88.5,24.5,88.7,24.7z M86.5,25.6c0,0,0.1-0.1,0.2-0.1c0.2-0.2,0.3-0.6,0-0.9
			c-0.3-0.4-0.8-0.4-1.3,0c-0.4,0.3-0.6,0.8-0.3,1.2c0.2,0.3,0.5,0.4,0.9,0.2c0.1,0,0.1-0.1,0.2-0.1C86.2,25.8,86.3,25.7,86.5,25.6z
			"/>
		<path d="M87.1,27c-0.6,0.3-0.6,0.8-0.3,1.2c0.2,0.3,0.4,0.4,0.5,0.5c-0.1,0.1-0.2,0.1-0.3,0.2c-0.2-0.1-0.4-0.3-0.6-0.6
			c-0.4-0.7-0.2-1.4,0.4-1.8c0.7-0.4,1.5-0.4,1.9,0.3c0.5,0.7-0.1,1.3-0.5,1.5c-0.1,0.1-0.2,0.1-0.2,0.1C87.7,28,87.5,27.7,87.1,27z
			 M88.1,28c0.3-0.2,0.6-0.5,0.3-1c-0.3-0.4-0.8-0.3-1.1-0.2C87.7,27.3,87.8,27.6,88.1,28z"/>
		<path d="M88.9,28.8c0.3-0.1,0.5-0.3,0.7-0.4c0.1,0.1,0.1,0.2,0.2,0.4c-0.2,0.1-0.3,0.2-0.5,0.3c0,0,0,0,0,0
			c0.4-0.1,0.7,0.1,0.9,0.3c0,0,0,0.1,0.1,0.1c-0.2,0.1-0.2,0.1-0.4,0.2c0,0,0-0.1-0.1-0.1c-0.2-0.3-0.5-0.4-0.9-0.3
			c-0.1,0-0.1,0-0.2,0.1c-0.5,0.3-0.8,0.4-1.3,0.7c-0.1-0.2-0.1-0.2-0.2-0.4C88,29.4,88.3,29.2,88.9,28.8z"/>
		<path d="M91.3,31.3c-0.4,0.3-0.7,0.5-1.1,0.8c-0.2,0.2-0.5,0.4-0.7,0.5c0,0,0,0,0,0c0.3-0.1,0.6-0.1,0.9-0.1
			c0.6-0.1,0.9-0.1,1.4-0.2c0.1,0.1,0.1,0.2,0.2,0.4c-0.4,0.4-0.6,0.5-1.1,0.9c-0.3,0.2-0.5,0.4-0.7,0.6c0,0,0,0,0,0
			c0.3-0.1,0.6-0.1,0.9-0.2c0.6-0.1,0.8-0.1,1.4-0.2c0.1,0.2,0.1,0.3,0.2,0.4c-1.1,0.1-1.7,0.2-2.8,0.3c-0.1-0.2-0.1-0.2-0.2-0.4
			c0.4-0.3,0.6-0.5,1-0.9c0.2-0.2,0.4-0.4,0.7-0.6c0,0,0,0,0,0c-0.3,0.1-0.6,0.1-0.9,0.1c-0.5,0-0.8,0.1-1.3,0.1
			c-0.1-0.2-0.1-0.2-0.2-0.4c0.9-0.7,1.3-1.1,2.1-1.8C91.1,31,91.2,31.1,91.3,31.3z"/>
		<path d="M90.3,35.7c1-0.4,1.5-0.5,2.5-0.9c0.1,0.2,0.1,0.3,0.2,0.4c-1,0.4-1.5,0.5-2.5,0.9C90.4,36,90.4,35.9,90.3,35.7z M93.7,35
			c-0.2,0.1-0.3,0-0.4-0.2c-0.1-0.2,0-0.3,0.2-0.4c0.2-0.1,0.3,0,0.4,0.2C94,34.8,93.9,35,93.7,35z"/>
		<path d="M94.5,35.6c0.1,0.2,0.1,0.3,0.2,0.4c-1.5,0.5-2.2,0.7-3.7,1.2c-0.1-0.2-0.1-0.3-0.2-0.4C92.2,36.4,93,36.1,94.5,35.6z"/>
		<path d="M94.9,36.9c0.1,0.2,0.1,0.3,0.1,0.4c-1.5,0.4-2.3,0.7-3.8,1.1c-0.1-0.2-0.1-0.3-0.1-0.4C92.6,37.5,93.4,37.3,94.9,36.9z"
			/>
		<path d="M91.8,40.2c0.2,0,0.5-0.1,0.7-0.1c1.3-0.3,1.9-0.4,3.2-0.7c0,0.2,0.1,0.3,0.1,0.5c-0.7,0.1-1,0.2-1.7,0.3c0,0,0,0,0,0
			c0.3,0.1,0.6,0.4,0.7,0.8c0.1,0.6-0.3,1.2-1.1,1.3c-0.9,0.2-1.5-0.3-1.7-0.8c-0.1-0.4,0-0.7,0.3-0.9c0,0,0,0,0,0
			c-0.2,0-0.3,0-0.4,0.1C91.8,40.4,91.8,40.4,91.8,40.2z M92.9,40.5c-0.1,0-0.1,0-0.2,0.1c-0.3,0.2-0.5,0.5-0.4,0.8
			c0.1,0.5,0.6,0.7,1.2,0.6c0.5-0.1,0.9-0.5,0.8-1c-0.1-0.3-0.4-0.6-0.7-0.6c-0.1,0-0.1,0-0.2,0C93.2,40.4,93.1,40.4,92.9,40.5z"/>
		<path d="M93.7,43.2c-0.7,0.1-0.9,0.5-0.8,1c0.1,0.3,0.1,0.5,0.2,0.7C93,44.9,93,45,92.8,45c-0.1-0.2-0.2-0.4-0.3-0.8
			c-0.1-0.8,0.3-1.3,1.1-1.4c0.8-0.1,1.5,0.2,1.6,1c0.1,0.8-0.6,1.2-1.1,1.2c-0.1,0-0.2,0-0.2,0C93.9,44.3,93.8,43.9,93.7,43.2z
			 M94.3,44.5c0.3,0,0.8-0.2,0.7-0.8c-0.1-0.5-0.6-0.6-0.9-0.6C94.1,43.7,94.2,44,94.3,44.5z"/>
		<path d="M97,48.8c-1.3,0.1-2,0.1-3.3,0.2c-0.2,0-0.5,0-0.7,0.1c0-0.2,0-0.3,0-0.4c0.2,0,0.3,0,0.5,0c0,0,0,0,0,0
			c-0.3-0.1-0.6-0.4-0.6-0.8c0-0.6,0.5-1.1,1.3-1.2c0.9-0.1,1.5,0.4,1.5,1.1c0,0.4-0.2,0.7-0.4,0.8c0,0,0,0,0,0c0.6,0,1-0.1,1.6-0.1
			C97,48.5,97,48.6,97,48.8z M94.6,48.5c0.1,0,0.1,0,0.2,0c0.3-0.1,0.5-0.4,0.5-0.7c0-0.5-0.5-0.7-1.1-0.7c-0.5,0-1,0.3-1,0.8
			c0,0.3,0.3,0.6,0.6,0.7c0.1,0,0.1,0,0.2,0C94.3,48.5,94.4,48.5,94.6,48.5z"/>
		<path d="M93.1,49.7c1.1,0,1.6,0,2.7,0c0,0.2,0,0.3,0,0.5c-1.1,0-1.6,0-2.7,0C93.1,50,93.1,49.9,93.1,49.7z M96.5,50.2
			c-0.2,0-0.3-0.1-0.3-0.3c0-0.2,0.1-0.3,0.3-0.3c0.2,0,0.3,0.1,0.3,0.3C96.8,50.1,96.7,50.2,96.5,50.2z"/>
		<path d="M93.6,50.9c-0.1,0.1-0.2,0.4-0.2,0.6c0,0.3,0.2,0.5,0.4,0.5c0.2,0,0.4-0.1,0.5-0.5c0.2-0.5,0.5-0.7,0.8-0.7
			c0.4,0,0.8,0.4,0.8,0.9c0,0.3-0.1,0.5-0.2,0.6c-0.1-0.1-0.2-0.1-0.4-0.1c0.1-0.1,0.2-0.3,0.2-0.5c0-0.3-0.2-0.4-0.4-0.4
			c-0.2,0-0.3,0.1-0.5,0.5c-0.2,0.4-0.4,0.7-0.8,0.6c-0.5,0-0.8-0.4-0.8-1c0-0.3,0.1-0.5,0.2-0.7C93.3,50.8,93.4,50.8,93.6,50.9z"/>
		<path d="M96.4,53.8c-0.3,0-0.5,0-0.8-0.1c0,0.3,0,0.4-0.1,0.7c-0.1,0-0.2,0-0.4,0c0-0.3,0-0.4,0.1-0.7c-0.6,0-0.9-0.1-1.5-0.1
			c-0.3,0-0.5,0.1-0.6,0.3c0,0.1,0,0.2,0,0.3c-0.1,0-0.2,0-0.4,0c0-0.1,0-0.2,0-0.4c0-0.2,0.1-0.4,0.2-0.5c0.2-0.1,0.4-0.2,0.7-0.1
			c0.6,0,0.9,0.1,1.5,0.1c0-0.2,0-0.2,0-0.4c0.1,0,0.2,0,0.4,0c0,0.2,0,0.2,0,0.4c0.3,0,0.4,0,0.6,0C96.3,53.6,96.3,53.7,96.4,53.8z
			"/>
		<path d="M94.6,54.9c0.3,0,0.6,0.1,0.8,0.1c0,0.2,0,0.2-0.1,0.4c-0.2,0-0.3,0-0.5,0c0,0,0,0,0,0c0.3,0.2,0.5,0.5,0.5,0.8
			c0,0.1,0,0.1,0,0.1c-0.2,0-0.3,0-0.5-0.1c0,0,0-0.1,0-0.2c0-0.3-0.2-0.6-0.5-0.7c-0.1,0-0.1,0-0.2,0c-0.6-0.1-0.9-0.1-1.4-0.2
			c0-0.2,0-0.3,0.1-0.5C93.5,54.8,93.9,54.9,94.6,54.9z"/>
		<path d="M92.3,57.8c0.1,0,0.2,0,0.3,0c0,0,0,0,0,0c-0.2-0.2-0.3-0.5-0.3-0.8c0.1-0.5,0.5-0.7,0.9-0.7C94,56.4,94.2,57,94,58
			c0,0,0,0,0.1,0c0.2,0,0.6,0,0.7-0.5c0-0.2,0-0.5-0.1-0.7c0.1,0,0.2,0,0.3-0.1c0.1,0.2,0.1,0.6,0.1,0.9c-0.1,0.8-0.7,0.9-1.3,0.8
			c-0.4-0.1-0.6-0.1-1-0.2c-0.2,0-0.5-0.1-0.6-0.1C92.3,58,92.3,57.9,92.3,57.8z M93.7,57.9c0.1-0.5,0.1-1.1-0.4-1.2
			c-0.3-0.1-0.5,0.1-0.5,0.4c-0.1,0.3,0.1,0.6,0.3,0.7c0,0,0.1,0,0.1,0.1C93.4,57.9,93.5,57.9,93.7,57.9z"/>
		<path d="M91.8,60.7c0-0.1-0.1-0.4,0-0.8c0.2-0.8,0.8-1.1,1.6-1c0.8,0.2,1.3,0.8,1.1,1.7c-0.1,0.3-0.2,0.5-0.3,0.6
			c-0.1-0.1-0.2-0.1-0.3-0.2c0.1-0.1,0.2-0.3,0.3-0.5c0.1-0.6-0.2-1-0.8-1.1c-0.6-0.1-1.1,0.2-1.2,0.7c-0.1,0.3,0,0.4,0,0.6
			C92,60.7,91.9,60.7,91.8,60.7z"/>
		<path d="M94.7,62.6c-0.3-0.1-0.4-0.1-0.7-0.2c-0.1,0.3-0.1,0.4-0.2,0.6c-0.1,0-0.2-0.1-0.4-0.1c0.1-0.3,0.1-0.4,0.2-0.6
			c-0.6-0.2-0.8-0.2-1.4-0.4c-0.3-0.1-0.5-0.1-0.6,0.2c0,0.1,0,0.2,0,0.3c-0.1,0-0.2,0-0.4-0.1c0-0.1,0-0.2,0.1-0.4
			c0.1-0.2,0.2-0.4,0.3-0.4c0.2-0.1,0.4-0.1,0.7,0c0.6,0.2,0.8,0.2,1.4,0.4c0-0.2,0.1-0.2,0.1-0.4c0.1,0,0.2,0.1,0.4,0.1
			c0,0.2-0.1,0.2-0.1,0.4c0.2,0.1,0.4,0.1,0.6,0.2C94.7,62.3,94.7,62.4,94.7,62.6z"/>
		<path d="M92.1,63.4c-0.6-0.2-1,0.1-1.2,0.5c-0.1,0.3-0.1,0.5-0.1,0.7c-0.1,0-0.2,0-0.4,0c0-0.2,0-0.5,0.1-0.9c0.3-0.7,1-1,1.7-0.8
			c0.8,0.3,1.2,0.9,1,1.6c-0.3,0.8-1.1,0.8-1.6,0.6c-0.1,0-0.2-0.1-0.2-0.1C91.8,64.5,91.9,64.1,92.1,63.4z M92,64.8
			c0.3,0.1,0.8,0.1,1-0.4c0.2-0.4-0.2-0.8-0.5-0.9C92.3,64.1,92.2,64.3,92,64.8z"/>
		<path d="M92.9,68.8c-1.2-0.5-1.8-0.7-3-1.2c-0.2-0.1-0.5-0.2-0.7-0.2c0.1-0.2,0.1-0.2,0.2-0.4c0.2,0.1,0.3,0.1,0.4,0.2
			c0,0,0,0,0,0c-0.2-0.2-0.3-0.6-0.1-1c0.3-0.6,1-0.8,1.7-0.5c0.8,0.3,1.1,1,0.9,1.6c-0.2,0.4-0.4,0.5-0.7,0.6c0,0,0,0,0,0
			c0.6,0.2,0.9,0.4,1.5,0.6C93,68.5,92.9,68.6,92.9,68.8z M90.9,67.5c0.1,0,0.1,0,0.2,0.1c0.3,0.1,0.7-0.1,0.8-0.4
			c0.2-0.4-0.1-0.9-0.6-1.1c-0.5-0.2-1-0.1-1.2,0.3c-0.1,0.3,0,0.6,0.3,0.8c0.1,0,0.1,0.1,0.2,0.1C90.6,67.4,90.7,67.4,90.9,67.5z"
			/>
		<path d="M88.4,68.9c0.2,0.1,0.4,0.2,0.6,0.3c1.1,0.6,1.7,0.9,2.9,1.5c-0.1,0.2-0.1,0.2-0.2,0.4c-0.6-0.3-0.9-0.5-1.5-0.8
			c0,0,0,0,0,0c0.2,0.3,0.2,0.6,0,1c-0.3,0.6-1,0.7-1.8,0.3c-0.8-0.4-1-1.2-0.7-1.7c0.2-0.3,0.5-0.5,0.9-0.5c0,0,0,0,0,0
			c-0.2-0.1-0.2-0.1-0.4-0.2C88.3,69.1,88.3,69,88.4,68.9z M89.1,69.8c-0.1,0-0.1,0-0.2-0.1c-0.3-0.1-0.7,0.1-0.9,0.4
			c-0.2,0.4,0,0.9,0.5,1.2c0.5,0.2,1,0.2,1.3-0.2c0.2-0.3,0.1-0.6-0.2-0.9c0,0-0.1-0.1-0.2-0.1C89.4,70,89.3,69.9,89.1,69.8z"/>
		<path d="M89.1,73c-0.7-0.1-1-0.2-1.7-0.3c-0.2,0-0.4-0.1-0.6-0.1c0,0,0,0,0,0c0.1,0.1,0.3,0.3,0.4,0.4c0.4,0.5,0.6,0.7,1.1,1.2
			c-0.1,0.2-0.2,0.3-0.3,0.4c-0.5-0.6-0.7-0.9-1.2-1.6c-0.6-0.8-0.9-1.2-0.9-1.6c0-0.3,0-0.5,0.1-0.6c0.2,0,0.2,0.1,0.4,0.1
			c0,0.1,0,0.3,0,0.5c0,0.2,0.1,0.4,0.2,0.6c0,0,0.1,0.1,0.1,0.1c0,0,0.1,0,0.1,0c1.1,0.2,1.6,0.3,2.6,0.5
			C89.3,72.7,89.2,72.8,89.1,73z"/>
		<path d="M87.3,76.9c-0.2-0.2-0.4-0.3-0.6-0.4c-0.2,0.2-0.3,0.3-0.4,0.5c-0.1-0.1-0.2-0.1-0.3-0.2c0.2-0.2,0.3-0.3,0.4-0.5
			c-0.5-0.3-0.7-0.5-1.2-0.8c-0.3-0.2-0.5-0.2-0.6,0c-0.1,0.1-0.1,0.2-0.1,0.2c-0.1-0.1-0.2-0.1-0.3-0.2c0-0.1,0.1-0.2,0.2-0.4
			c0.1-0.2,0.3-0.3,0.5-0.3c0.2,0,0.4,0.1,0.7,0.3c0.5,0.3,0.7,0.5,1.2,0.8c0.1-0.1,0.1-0.2,0.2-0.3c0.1,0.1,0.2,0.1,0.3,0.2
			c-0.1,0.1-0.1,0.2-0.2,0.3c0.2,0.1,0.3,0.2,0.5,0.4C87.4,76.6,87.3,76.7,87.3,76.9z"/>
		<path d="M86.8,78.2c-0.1,0.1-0.2,0.2-0.3,0.4c-0.5-0.4-0.8-0.6-1.3-1c0,0,0,0,0,0c0.1,0.1,0.1,0.3,0,0.5c0,0.2-0.1,0.3-0.2,0.5
			c-0.2,0.3-0.8,0.6-1.5,0c-0.5-0.4-0.7-0.6-1.2-1c0.1-0.1,0.2-0.2,0.3-0.4c0.5,0.4,0.7,0.6,1.2,0.9c0.3,0.3,0.7,0.4,1,0
			c0.2-0.2,0.2-0.6,0-0.8c0-0.1-0.1-0.1-0.2-0.2c-0.5-0.4-0.7-0.6-1.2-1c0.1-0.1,0.2-0.2,0.3-0.4C85,76.8,85.6,77.3,86.8,78.2z"/>
		<path d="M82.5,79c-0.5-0.4-1-0.3-1.3,0c-0.2,0.2-0.3,0.4-0.4,0.6c-0.1-0.1-0.2-0.1-0.3-0.2c0.1-0.2,0.2-0.4,0.5-0.7
			c0.6-0.6,1.3-0.6,1.9,0c0.6,0.5,0.7,1.3,0.2,1.8c-0.6,0.6-1.3,0.3-1.7-0.1c-0.1-0.1-0.1-0.1-0.2-0.2C81.7,79.8,82,79.6,82.5,79z
			 M81.8,80.3c0.2,0.2,0.7,0.4,1,0.1c0.3-0.3,0.2-0.8-0.1-1C82.4,79.7,82.2,79.9,81.8,80.3z"/>
		<path d="M80.3,81.9c0.2,0.2,0.4,0.4,0.6,0.6c-0.1,0.1-0.2,0.2-0.3,0.3c-0.1-0.1-0.2-0.2-0.4-0.4c0,0,0,0,0,0
			c0.1,0.3,0.1,0.7-0.2,0.9c0,0-0.1,0.1-0.1,0.1c-0.1-0.1-0.2-0.2-0.3-0.3c0,0,0.1-0.1,0.1-0.1c0.3-0.2,0.3-0.6,0.1-0.9
			c0-0.1-0.1-0.1-0.1-0.2c-0.4-0.4-0.6-0.6-1-1c0.1-0.1,0.2-0.2,0.4-0.3C79.5,81.2,79.8,81.4,80.3,81.9z"/>
		<path d="M78.3,82.8c-0.4-0.5-0.9-0.4-1.3-0.1c-0.3,0.2-0.4,0.4-0.5,0.6c-0.1-0.1-0.2-0.1-0.3-0.2c0.1-0.2,0.3-0.4,0.6-0.7
			c0.6-0.5,1.4-0.4,1.9,0.2c0.5,0.6,0.5,1.4-0.1,1.8c-0.7,0.5-1.4,0.1-1.7-0.3c-0.1-0.1-0.1-0.1-0.1-0.2
			C77.4,83.5,77.7,83.3,78.3,82.8z M77.4,83.9c0.2,0.2,0.6,0.5,1,0.2c0.4-0.3,0.3-0.8,0.1-1C78.1,83.4,77.9,83.6,77.4,83.9z"/>
		<path d="M74.4,84.2c0.1,0.1,0.1,0.1,0.2,0.2c0,0,0,0,0,0c0-0.2,0.1-0.6,0.4-0.8c0.4-0.3,0.9-0.2,1.1,0.1c0.4,0.5,0.1,1.1-0.7,1.7
			c0,0,0,0,0,0c0.1,0.2,0.4,0.5,0.9,0.1c0.2-0.1,0.4-0.3,0.5-0.5c0.1,0.1,0.2,0.1,0.3,0.2c-0.1,0.2-0.3,0.5-0.6,0.7
			c-0.7,0.5-1.2,0.1-1.5-0.3c-0.2-0.3-0.3-0.5-0.6-0.8c-0.1-0.2-0.3-0.4-0.4-0.5C74.2,84.3,74.2,84.3,74.4,84.2z M75.2,85.2
			c0.4-0.3,0.9-0.7,0.6-1.1c-0.2-0.2-0.4-0.2-0.6-0.1c-0.3,0.2-0.3,0.5-0.3,0.7c0,0,0,0.1,0.1,0.1C75.1,85,75.1,85,75.2,85.2z"/>
		<path d="M73.6,89.1c-0.7-1.1-1-1.6-1.7-2.7c-0.1-0.2-0.3-0.4-0.4-0.6c0.1-0.1,0.2-0.1,0.4-0.2c0.1,0.1,0.2,0.2,0.3,0.4
			c0,0,0,0,0,0c0-0.3,0.1-0.7,0.5-0.9c0.6-0.3,1.3-0.1,1.7,0.5c0.5,0.7,0.3,1.5-0.3,1.8c-0.4,0.2-0.7,0.2-0.9,0.1c0,0,0,0,0,0
			c0.3,0.5,0.5,0.8,0.8,1.3C73.8,89,73.7,89,73.6,89.1z M72.7,87c0,0,0.1,0.1,0.1,0.2c0.2,0.2,0.6,0.3,0.9,0.1
			c0.4-0.3,0.5-0.8,0.1-1.3c-0.3-0.4-0.8-0.7-1.2-0.4c-0.3,0.2-0.4,0.5-0.3,0.8c0,0.1,0.1,0.1,0.1,0.2C72.6,86.7,72.6,86.8,72.7,87z
			"/>
		<path d="M69.5,86.9c0.1,0.1,0.1,0.2,0.2,0.3c0,0,0,0,0,0c0-0.2,0.2-0.5,0.5-0.7c0.5-0.2,0.9,0,1.1,0.3c0.3,0.6,0,1.1-1,1.6
			c0,0,0,0,0,0c0.1,0.2,0.3,0.5,0.8,0.3c0.2-0.1,0.4-0.3,0.5-0.5c0.1,0.1,0.1,0.1,0.2,0.2c-0.1,0.2-0.4,0.4-0.7,0.6
			c-0.7,0.4-1.2,0-1.4-0.5c-0.2-0.3-0.3-0.5-0.5-0.9c-0.1-0.2-0.2-0.4-0.3-0.5C69.3,87.1,69.3,87,69.5,86.9z M70.2,88.1
			c0.5-0.2,1-0.6,0.7-1c-0.1-0.3-0.4-0.3-0.6-0.2c-0.3,0.2-0.4,0.4-0.4,0.7c0,0.1,0,0.1,0,0.1C70.1,87.8,70.1,87.9,70.2,88.1z"/>
		<path d="M68.5,87.4c0.1,0.2,0.2,0.4,0.3,0.6c0.5,1.1,0.8,1.7,1.3,2.8c-0.2,0.1-0.3,0.1-0.4,0.2c-0.3-0.6-0.4-0.9-0.7-1.5
			c0,0,0,0,0,0c0,0.3-0.2,0.6-0.6,0.8c-0.6,0.3-1.3,0-1.6-0.8c-0.4-0.8,0-1.5,0.5-1.7c0.4-0.2,0.7-0.1,1,0.1c0,0,0,0,0,0
			c-0.1-0.2-0.1-0.2-0.2-0.4C68.3,87.5,68.4,87.5,68.5,87.4z M68.5,88.6c0-0.1-0.1-0.1-0.1-0.1c-0.2-0.3-0.6-0.4-0.9-0.2
			c-0.5,0.2-0.6,0.7-0.3,1.2c0.2,0.5,0.7,0.8,1.1,0.6c0.3-0.1,0.5-0.4,0.4-0.8c0-0.1,0-0.1-0.1-0.2C68.6,88.8,68.6,88.7,68.5,88.6z"
			/>
		<path d="M67,92.1c-0.2,0.1-0.3,0.1-0.5,0.2c-0.6-1.4-0.9-2.1-1.4-3.5c0.2-0.1,0.3-0.1,0.5-0.2C66.2,90,66.5,90.7,67,92.1z"/>
		<path d="M64.6,90.3c-0.2-0.6-0.7-0.7-1.2-0.6c-0.3,0.1-0.5,0.2-0.7,0.4c-0.1-0.1-0.1-0.2-0.2-0.3c0.1-0.1,0.4-0.3,0.8-0.4
			c0.8-0.2,1.4,0.1,1.7,0.8c0.3,0.7,0,1.5-0.7,1.7c-0.8,0.3-1.3-0.4-1.5-0.8c0-0.1,0-0.2-0.1-0.2C63.5,90.6,63.8,90.5,64.6,90.3z
			 M63.3,91c0.1,0.3,0.4,0.7,0.9,0.5c0.5-0.1,0.5-0.6,0.5-0.9C64.1,90.7,63.9,90.8,63.3,91z"/>
		<path d="M58.9,90.6c0.1-0.1,0.4-0.2,0.7-0.3c0.8-0.2,1.4,0.2,1.6,1c0.2,0.8-0.2,1.5-1.1,1.6c-0.3,0.1-0.5,0.1-0.7,0
			c0-0.2,0-0.2,0-0.4c0.1,0,0.3,0.1,0.6,0c0.6-0.1,0.8-0.6,0.7-1.2c-0.1-0.6-0.6-0.8-1.1-0.7c-0.3,0.1-0.4,0.2-0.6,0.3
			C59,90.8,59,90.8,58.9,90.6z"/>
		<path d="M56.2,92.3c-0.2-0.9,0.4-1.5,1.1-1.6c0.7-0.1,1.4,0.3,1.5,1.1c0.2,0.8-0.3,1.4-1.1,1.6C57,93.5,56.4,93.1,56.2,92.3z
			 M58.3,91.9c-0.1-0.6-0.5-0.9-1-0.8c-0.5,0.1-0.7,0.5-0.6,1.1c0.1,0.4,0.4,0.9,1,0.8C58.2,93,58.4,92.4,58.3,91.9z"/>
		<path d="M55.6,93c0,0.3,0.1,0.5,0.1,0.7c-0.2,0-0.3,0-0.4,0c0-0.2,0-0.3-0.1-0.4c0,0,0,0,0,0c-0.1,0.3-0.4,0.5-0.8,0.6
			c-0.4,0-1-0.1-1.1-1c-0.1-0.6-0.1-0.9-0.2-1.5c0.2,0,0.3,0,0.5,0c0.1,0.6,0.1,0.9,0.2,1.5c0,0.4,0.2,0.7,0.7,0.7
			c0.3,0,0.5-0.3,0.6-0.5c0-0.1,0-0.1,0-0.2c-0.1-0.6-0.1-0.9-0.2-1.5c0.2,0,0.3,0,0.5,0C55.5,91.8,55.5,92.2,55.6,93z"/>
		<path d="M52,94.7c0-0.3,0-0.4,0-0.7c-0.3,0-0.4,0-0.7,0c0-0.1,0-0.2,0-0.4c0.3,0,0.4,0,0.7,0c0-0.6,0-0.8-0.1-1.4
			c0-0.3-0.1-0.5-0.4-0.5c-0.1,0-0.2,0-0.3,0c0-0.1,0-0.2,0-0.4c0.1,0,0.2-0.1,0.4-0.1c0.2,0,0.4,0.1,0.5,0.2
			c0.1,0.1,0.2,0.4,0.2,0.7c0,0.6,0,0.8,0.1,1.4c0.2,0,0.3,0,0.4,0c0,0.1,0,0.2,0,0.4c-0.2,0-0.3,0-0.4,0c0,0.2,0,0.4,0,0.6
			C52.3,94.6,52.2,94.6,52,94.7z"/>
		<path d="M50.4,92.6c0-0.6-0.4-0.9-0.9-0.9c-0.4,0-0.6,0-0.7,0.1c0-0.1,0-0.2-0.1-0.3c0.2-0.1,0.5-0.2,0.9-0.1
			c0.8,0,1.3,0.5,1.3,1.3c0,0.8-0.5,1.4-1.3,1.4c-0.9,0-1.1-0.8-1.1-1.2c0-0.1,0-0.2,0-0.2C49.2,92.6,49.6,92.6,50.4,92.6z
			 M48.9,92.9c0,0.3,0.1,0.8,0.7,0.8c0.5,0,0.7-0.4,0.8-0.7C49.8,93,49.5,92.9,48.9,92.9z"/>
		<path d="M47.8,93.3c0,0.3,0,0.5,0,0.7c-0.2,0-0.3,0-0.4,0c0-0.2,0-0.3,0-0.4c0,0,0,0,0,0c-0.2,0.2-0.5,0.5-0.9,0.4
			c-0.4,0-0.9-0.3-0.9-1.2c0-0.6,0.1-0.9,0.1-1.5c0.2,0,0.3,0,0.5,0c0,0.6-0.1,0.9-0.1,1.5c0,0.4,0.1,0.8,0.6,0.8
			c0.3,0,0.6-0.2,0.7-0.4c0-0.1,0-0.1,0-0.2c0-0.6,0.1-0.9,0.1-1.5c0.2,0,0.3,0,0.5,0C47.9,92.1,47.8,92.5,47.8,93.3z"/>
		<path d="M43.9,94.4c0-0.3,0.1-0.4,0.1-0.7c-0.3,0-0.4-0.1-0.7-0.1c0-0.1,0-0.2,0-0.4c0.3,0,0.4,0.1,0.7,0.1
			c0.1-0.6,0.1-0.8,0.2-1.4c0-0.3,0-0.5-0.3-0.5c-0.1,0-0.2,0-0.3,0c0-0.1,0-0.2,0-0.4c0.1,0,0.3,0,0.4,0c0.2,0,0.4,0.1,0.5,0.3
			c0.1,0.2,0.1,0.4,0.1,0.7c-0.1,0.6-0.1,0.8-0.2,1.4c0.2,0,0.2,0,0.4,0.1c0,0.1,0,0.2,0,0.4c-0.2,0-0.2,0-0.4,0
			c0,0.2,0,0.4-0.1,0.6C44.2,94.3,44.1,94.3,43.9,94.4z"/>
		<path d="M39.3,91.5c0.2-0.9,1-1.2,1.6-1.1c0.7,0.1,1.2,0.8,1,1.6c-0.2,0.8-0.9,1.2-1.6,1.1C39.6,92.9,39.2,92.3,39.3,91.5z
			 M41.4,91.9c0.1-0.6-0.1-1-0.6-1.1c-0.5-0.1-0.9,0.2-1,0.8c-0.1,0.4,0,1,0.6,1.1C41,92.9,41.3,92.4,41.4,91.9z"/>
		<path d="M39,90.1c-0.2,0.9-0.4,1.3-0.6,2.1c0.1,0,0.2,0.1,0.4,0.1c0,0.1-0.1,0.2-0.1,0.3c-0.1,0-0.2-0.1-0.4-0.1c0,0,0,0.1,0,0.1
			c-0.1,0.3-0.3,0.6-0.5,0.8c-0.2,0.1-0.5,0.1-0.7,0.1c-0.2,0-0.3-0.1-0.4-0.2c0.1-0.1,0.1-0.2,0.2-0.3c0.1,0,0.2,0.1,0.3,0.1
			c0.4,0.1,0.6-0.2,0.7-0.6c0-0.1,0-0.1,0-0.1c-0.3-0.1-0.4-0.1-0.6-0.2c0-0.1,0.1-0.2,0.1-0.3c0.3,0.1,0.4,0.1,0.6,0.2
			c0.2-0.9,0.4-1.3,0.6-2.1C38.7,90,38.8,90,39,90.1z"/>
		<path d="M35,88.9c0,0.1,0,0.2-0.1,0.3c0,0,0,0,0,0c0.2-0.1,0.5-0.2,0.9-0.1c0.5,0.2,0.7,0.6,0.5,1c-0.2,0.6-0.9,0.7-1.9,0.4
			c0,0,0,0,0,0c-0.1,0.2-0.1,0.6,0.4,0.8c0.2,0.1,0.5,0.1,0.7,0c0,0.1,0,0.2,0,0.3c-0.3,0.1-0.6,0-0.9-0.1c-0.8-0.3-0.8-0.8-0.6-1.3
			c0.1-0.4,0.2-0.5,0.3-0.9c0.1-0.2,0.1-0.4,0.2-0.6C34.8,88.8,34.9,88.9,35,88.9z M34.7,90.2c0.5,0.2,1.1,0.3,1.3-0.2
			c0.1-0.3,0-0.5-0.3-0.6c-0.3-0.1-0.6,0-0.8,0.2c0,0-0.1,0.1-0.1,0.1C34.7,89.9,34.7,90,34.7,90.2z"/>
		<path d="M32.2,89.7c-0.1,0.3-0.3,0.5-0.3,0.8c-0.2-0.1-0.2-0.1-0.4-0.2c0.1-0.2,0.1-0.2,0.2-0.4c0,0,0,0,0,0
			c-0.3,0.2-0.7,0.2-1.1,0.1c-0.6-0.3-0.8-0.9-0.5-1.6c0.4-0.8,1.1-1,1.7-0.8c0.3,0.1,0.5,0.4,0.6,0.7c0,0,0,0,0,0
			c0.2-0.5,0.4-0.8,0.6-1.3c0.2,0.1,0.3,0.1,0.4,0.2C32.9,88.2,32.7,88.7,32.2,89.7z M32,88.9c0-0.1,0-0.1,0.1-0.2
			c0.1-0.3-0.1-0.7-0.4-0.8c-0.5-0.2-0.9,0-1.2,0.6c-0.2,0.5-0.2,1,0.3,1.2c0.3,0.1,0.7,0.1,0.9-0.2c0,0,0.1-0.1,0.1-0.2
			C31.9,89.1,31.9,89,32,88.9z"/>
		<path d="M28.8,86.2c-0.1,0.1-0.1,0.2-0.1,0.3c0,0,0,0,0,0c0.2-0.1,0.6-0.1,0.9,0c0.5,0.2,0.5,0.7,0.4,1c-0.3,0.5-1,0.6-1.9,0.1
			c0,0,0,0,0,0c-0.1,0.2-0.2,0.6,0.2,0.8c0.2,0.1,0.5,0.2,0.7,0.2c0,0.1,0,0.2-0.1,0.3c-0.3,0-0.6,0-0.9-0.2
			c-0.7-0.4-0.6-0.9-0.4-1.4c0.2-0.3,0.3-0.5,0.5-0.8c0.1-0.2,0.2-0.4,0.3-0.6C28.6,86,28.6,86.1,28.8,86.2z M28.2,87.3
			c0.5,0.3,1,0.5,1.3,0c0.2-0.3,0-0.5-0.2-0.6c-0.3-0.2-0.6-0.1-0.8,0.1c0,0-0.1,0.1-0.1,0.1C28.3,87.1,28.3,87.2,28.2,87.3z"/>
		<path d="M24.4,86.6c0.1-0.2,0.2-0.3,0.4-0.6c0.3-0.5,0.5-0.8,0.8-1.3c0.3-0.5,0.6-0.7,1-0.8c0.3-0.1,0.7,0.1,1,0.2
			c0.3,0.2,0.5,0.4,0.6,0.6c-0.1,0.1-0.2,0.1-0.3,0.2c-0.1-0.2-0.3-0.4-0.6-0.6c-0.4-0.3-0.9-0.2-1.2,0.3c-0.1,0.1-0.1,0.1-0.2,0.2
			c0,0,0,0,0,0c0.3-0.1,0.6-0.1,1,0.1c0.6,0.3,0.7,1,0.3,1.6c-0.5,0.7-1.3,0.9-1.8,0.5c-0.4-0.2-0.5-0.6-0.5-0.8c0,0,0,0,0,0
			c-0.1,0.1-0.1,0.2-0.2,0.3C24.6,86.8,24.6,86.7,24.4,86.6z M25.4,86c0,0.1-0.1,0.1-0.1,0.2c-0.1,0.3,0,0.6,0.3,0.8
			c0.4,0.2,0.9,0.1,1.2-0.4c0.3-0.4,0.3-0.9-0.2-1.2c-0.3-0.2-0.6-0.1-0.8,0.1c-0.1,0.1-0.1,0.1-0.2,0.2
			C25.6,85.8,25.5,85.9,25.4,86z"/>
		<path d="M24.3,84.9c0.4-0.5,0.2-1-0.2-1.2c-0.3-0.2-0.5-0.3-0.7-0.3c0.1-0.1,0.1-0.2,0.1-0.3c0.2,0,0.5,0.1,0.8,0.4
			c0.7,0.5,0.7,1.2,0.3,1.8c-0.5,0.6-1.2,0.8-1.9,0.4c-0.7-0.5-0.4-1.2-0.1-1.6c0.1-0.1,0.1-0.1,0.1-0.2
			C23.4,84.2,23.7,84.4,24.3,84.9z M22.9,84.3c-0.2,0.2-0.4,0.7,0.1,1c0.4,0.3,0.8,0.1,1.1-0.2C23.6,84.8,23.4,84.6,22.9,84.3z"/>
		<path d="M20.2,83.6c0.3-0.5,0.4-0.7,0.7-1.2c0.1-0.3,0.3-0.5,0.4-0.7c0,0,0,0,0,0c-0.2,0.2-0.5,0.3-0.8,0.5
			c-0.5,0.3-0.8,0.4-1.3,0.7c-0.1-0.1-0.2-0.2-0.3-0.3c0.2-0.5,0.4-0.7,0.6-1.2c0.1-0.3,0.3-0.5,0.4-0.8c0,0,0,0,0,0
			c-0.2,0.2-0.5,0.3-0.7,0.5c-0.5,0.3-0.7,0.4-1.2,0.7c-0.1-0.1-0.2-0.2-0.4-0.3c1-0.5,1.5-0.8,2.5-1.4c0.1,0.1,0.2,0.2,0.3,0.3
			c-0.2,0.5-0.3,0.7-0.6,1.2c-0.1,0.3-0.3,0.5-0.4,0.8c0,0,0,0,0,0c0.3-0.2,0.5-0.3,0.8-0.5c0.5-0.3,0.7-0.4,1.2-0.6
			c0.1,0.1,0.2,0.2,0.3,0.3c-0.5,1-0.7,1.5-1.2,2.4C20.4,83.8,20.4,83.7,20.2,83.6z"/>
		<path d="M16.4,81.8c-0.1-0.1-0.2-0.2-0.3-0.3c0.5-0.4,0.7-0.7,1.2-1.1c0,0,0,0,0,0c-0.2,0-0.3,0-0.5,0c-0.2,0-0.3-0.1-0.4-0.3
			c-0.2-0.3-0.5-0.8,0.2-1.4c0.5-0.4,0.7-0.6,1.2-1c0.1,0.1,0.2,0.2,0.3,0.3c-0.5,0.4-0.7,0.6-1.1,1c-0.3,0.3-0.5,0.6-0.2,1
			c0.2,0.2,0.6,0.2,0.8,0.1c0.1,0,0.1-0.1,0.2-0.1c0.5-0.4,0.7-0.6,1.2-1.1c0.1,0.1,0.2,0.2,0.3,0.3C18.1,80.3,17.5,80.8,16.4,81.8z
			"/>
		<path d="M16,77.7c0.5-0.4,0.4-0.9,0.1-1.3c-0.2-0.3-0.4-0.4-0.6-0.5c0.1-0.1,0.1-0.2,0.2-0.3c0.2,0.1,0.4,0.2,0.7,0.6
			c0.5,0.6,0.4,1.3-0.2,1.8c-0.6,0.5-1.4,0.5-1.9-0.1c-0.6-0.6-0.1-1.3,0.3-1.6c0.1-0.1,0.1-0.1,0.2-0.1
			C15.3,76.8,15.5,77.1,16,77.7z M14.8,76.8c-0.2,0.2-0.5,0.6-0.2,1c0.3,0.4,0.8,0.2,1.1,0.1C15.4,77.4,15.2,77.2,14.8,76.8z"/>
		<path d="M13.9,76.2c-0.2,0.2-0.4,0.3-0.6,0.4c-0.1-0.1-0.2-0.2-0.3-0.3c0.1-0.1,0.2-0.2,0.3-0.3c0,0,0,0,0,0
			c-0.3,0-0.7-0.1-0.9-0.4c-0.2-0.3-0.4-0.9,0.4-1.4c0.5-0.4,0.8-0.5,1.3-0.9c0.1,0.2,0.2,0.2,0.3,0.4c-0.5,0.3-0.8,0.5-1.3,0.9
			c-0.4,0.2-0.6,0.6-0.3,0.9c0.2,0.3,0.5,0.3,0.8,0.2c0.1,0,0.1-0.1,0.2-0.1c0.5-0.4,0.8-0.5,1.3-0.9c0.1,0.2,0.2,0.2,0.3,0.4
			C14.8,75.5,14.5,75.7,13.9,76.2z"/>
		<path d="M9.7,73.7c-0.1-0.2-0.2-0.2-0.3-0.4c1.4-0.8,2-1.2,3.4-2c0.1,0.2,0.2,0.2,0.3,0.4C11.8,72.5,11.1,72.9,9.7,73.7z"/>
		<path d="M10.1,69.3c0.9-0.5,1.6-0.1,1.9,0.5c0.3,0.6,0.1,1.3-0.6,1.7c-0.8,0.4-1.5,0.2-1.9-0.5C9.1,70.3,9.4,69.6,10.1,69.3z
			 M11.1,71.1c0.5-0.3,0.8-0.8,0.5-1.2c-0.2-0.4-0.8-0.5-1.3-0.2c-0.4,0.2-0.8,0.7-0.5,1.1C10.1,71.3,10.7,71.3,11.1,71.1z"/>
		<path d="M8.8,66.6c0.9-0.4,1.6,0,1.9,0.6c0.3,0.6,0,1.3-0.7,1.7c-0.8,0.4-1.5,0-1.9-0.6C7.7,67.6,8,66.9,8.8,66.6z M9.7,68.5
			c0.5-0.2,0.8-0.7,0.6-1.1C10.1,66.9,9.6,66.8,9,67c-0.4,0.2-0.9,0.6-0.6,1.1C8.6,68.7,9.2,68.7,9.7,68.5z"/>
		<path d="M8.3,65.6C8.3,65.6,8.3,65.6,8.3,65.6c-0.1,0-0.3-0.1-0.4-0.1c-0.5-0.2-0.7-0.2-1.2-0.4c-0.1-0.2-0.1-0.3-0.2-0.5
			c0.6,0.2,0.8,0.3,1.4,0.6c0.4-0.6,0.6-1,1.1-1.6c0.1,0.2,0.1,0.3,0.2,0.5c-0.4,0.5-0.5,0.8-0.9,1.3c0.1,0.1,0.2,0.1,0.3,0.1
			c0.4-0.1,0.6-0.2,0.9-0.3c0.1,0.2,0.1,0.3,0.2,0.4c-1.5,0.5-2.2,0.8-3.7,1.3C6.1,66.7,6,66.7,6,66.5C6.9,66.2,7.4,66,8.3,65.6z"/>
		<path d="M5.5,63.7c0.2-0.1,0.3,0,0.4,0.2c0.1,0.2,0,0.3-0.2,0.4c-0.2,0.1-0.3,0-0.4-0.2C5.2,63.9,5.3,63.8,5.5,63.7z M8.9,63.2
			c-1,0.3-1.5,0.5-2.6,0.8c-0.1-0.2-0.1-0.3-0.2-0.4c1-0.3,1.5-0.5,2.6-0.8C8.8,62.9,8.9,63,8.9,63.2z"/>
		<path d="M6.6,62.5c-0.3,0.1-0.5,0.1-0.7,0.2c0-0.2-0.1-0.2-0.1-0.4c0.2-0.1,0.3-0.1,0.4-0.1c0,0,0,0,0,0c-0.3-0.1-0.6-0.3-0.7-0.7
			c-0.1-0.3,0-0.9,0.9-1.2c0.6-0.2,0.9-0.2,1.6-0.4C8,60.1,8,60.2,8.1,60.4c-0.6,0.2-0.9,0.2-1.5,0.4c-0.4,0.1-0.7,0.3-0.6,0.8
			C6,61.8,6.3,62,6.6,62c0.1,0,0.1,0,0.2,0c0.6-0.2,0.9-0.2,1.6-0.4c0.1,0.2,0.1,0.3,0.1,0.5C7.8,62.2,7.4,62.3,6.6,62.5z"/>
		<path d="M4.7,57.6c0.2,0,0.4-0.1,0.7-0.1C6,57.3,6.3,57.3,7,57.2c0.6-0.1,1-0.1,1.3,0.1c0.3,0.2,0.4,0.5,0.5,0.9
			c0.1,0.3,0.1,0.7,0,0.9c-0.2,0-0.2,0-0.4,0c0.1-0.2,0.1-0.5,0.1-0.8c-0.1-0.5-0.4-0.8-1.1-0.6c-0.1,0-0.2,0-0.3,0.1c0,0,0,0,0,0
			c0.3,0.1,0.5,0.3,0.6,0.7c0.1,0.6-0.3,1.2-1.1,1.3c-0.9,0.2-1.5-0.3-1.6-0.9c-0.1-0.4,0.1-0.7,0.3-0.9c0,0,0,0,0,0
			c-0.2,0-0.2,0-0.4,0.1C4.7,57.8,4.7,57.7,4.7,57.6z M5.8,57.8c-0.1,0-0.2,0-0.2,0.1c-0.3,0.1-0.4,0.4-0.4,0.7
			c0.1,0.4,0.5,0.7,1.2,0.6c0.5-0.1,0.9-0.4,0.8-0.9c-0.1-0.3-0.3-0.5-0.6-0.5c-0.1,0-0.2,0-0.3,0C6.1,57.8,6,57.8,5.8,57.8z"/>
		<path d="M6.9,53.9c-0.1,0-0.2,0-0.3,0.1c0,0,0,0,0,0c0.2,0.1,0.4,0.4,0.5,0.7c0.1,0.5-0.3,0.8-0.7,0.9c-0.6,0.1-1.1-0.5-1.2-1.4
			c0,0,0,0-0.1,0c-0.2,0-0.6,0.1-0.6,0.6c0,0.2,0.1,0.5,0.3,0.6c-0.1,0.1-0.2,0.1-0.3,0.1c-0.2-0.2-0.3-0.5-0.3-0.8
			c-0.1-0.8,0.5-1,1-1.1c0.4,0,0.6-0.1,1-0.1c0.2,0,0.5-0.1,0.6-0.1C6.9,53.6,6.9,53.7,6.9,53.9z M5.6,54.1c0,0.5,0.2,1.1,0.7,1
			c0.3,0,0.4-0.2,0.4-0.5c0-0.3-0.3-0.5-0.5-0.6c-0.1,0-0.1,0-0.2,0C5.8,54.1,5.7,54.1,5.6,54.1z"/>
		<path d="M3.3,52.4c0.3,0,0.5,0,0.8,0c0-0.3,0-0.4,0-0.7c0.1,0,0.2,0,0.4,0c0,0.3,0,0.4,0,0.7c0.6,0,0.9,0,1.5-0.1
			c0.3,0,0.5-0.1,0.5-0.4c0-0.1,0-0.2,0-0.3c0.1,0,0.2,0,0.4,0c0,0.1,0.1,0.2,0.1,0.4c0,0.2-0.1,0.4-0.2,0.5
			c-0.1,0.1-0.4,0.2-0.7,0.2c-0.6,0-0.9,0-1.5,0.1c0,0.2,0,0.2,0,0.4c-0.1,0-0.2,0-0.4,0c0-0.2,0-0.2,0-0.4c-0.3,0-0.4,0-0.6,0
			C3.4,52.7,3.4,52.6,3.3,52.4z"/>
		<path d="M3.3,49.4c0.2,0,0.3,0.1,0.3,0.3c0,0.2-0.1,0.3-0.3,0.3C3.1,50,3,49.9,3,49.7C3,49.5,3.1,49.4,3.3,49.4z M6.8,50
			c-1.1,0-1.6,0-2.7,0c0-0.2,0-0.3,0-0.5c1.1,0,1.6,0,2.7,0C6.8,49.7,6.8,49.8,6.8,50z"/>
		<path d="M3.3,48.1c0.3,0,0.5,0,0.8,0c0-0.3,0-0.4,0-0.7c0.1,0,0.2,0,0.4,0c0,0.3,0,0.4,0,0.7c0.6,0,0.9,0,1.5,0.1
			c0.3,0,0.5-0.1,0.5-0.3c0-0.1,0-0.2,0-0.3c0.1,0,0.2,0,0.4,0c0,0.1,0.1,0.2,0,0.4c0,0.2-0.1,0.4-0.2,0.5c-0.2,0.1-0.4,0.2-0.7,0.1
			c-0.6,0-0.9,0-1.5-0.1c0,0.2,0,0.2,0,0.4c-0.1,0-0.2,0-0.4,0c0-0.2,0-0.2,0-0.4c-0.3,0-0.4,0-0.6,0C3.4,48.3,3.4,48.2,3.3,48.1z"
			/>
		<path d="M6.4,47.1c0.1-0.1,0.2-0.4,0.3-0.6c0-0.3-0.1-0.5-0.4-0.5c-0.2,0-0.4,0.1-0.5,0.4C5.5,46.8,5.2,47,4.9,47
			c-0.4,0-0.8-0.4-0.7-1c0-0.3,0.1-0.5,0.2-0.6c0.1,0.1,0.2,0.1,0.3,0.1c-0.1,0.1-0.2,0.3-0.2,0.5c0,0.3,0.1,0.4,0.3,0.5
			c0.2,0,0.3-0.1,0.5-0.4c0.2-0.4,0.5-0.6,0.9-0.6c0.5,0,0.8,0.4,0.7,1c0,0.3-0.1,0.5-0.3,0.7C6.6,47.2,6.5,47.1,6.4,47.1z"/>
		<path d="M3.3,43.3c0-0.2,0-0.3,0.1-0.5c1.6,0.2,2.3,0.4,3.9,0.6c0,0.2,0,0.3-0.1,0.5C5.7,43.7,4.9,43.6,3.3,43.3z"/>
		<path d="M7.8,41.3c-0.1,0-0.2,0-0.3,0c0,0,0,0,0,0c0.2,0.2,0.3,0.5,0.2,0.8c-0.1,0.5-0.5,0.7-0.9,0.6c-0.6-0.1-0.9-0.7-0.7-1.7
			c0,0,0,0-0.1,0c-0.2,0-0.6-0.1-0.7,0.5c-0.1,0.2,0,0.5,0.1,0.7c-0.1,0-0.2,0-0.3,0c-0.1-0.2-0.1-0.6-0.1-0.9
			c0.2-0.8,0.8-0.9,1.3-0.7c0.4,0.1,0.6,0.1,1,0.2c0.2,0,0.5,0.1,0.6,0.1C7.8,41.1,7.8,41.2,7.8,41.3z M6.4,41.1
			c-0.1,0.5-0.1,1.1,0.4,1.2c0.3,0.1,0.5-0.1,0.6-0.3c0.1-0.3-0.1-0.6-0.3-0.7c0,0-0.1,0-0.1-0.1C6.7,41.2,6.6,41.2,6.4,41.1z"/>
		<path d="M5.5,39.5c0.7-0.1,1-0.1,1.7-0.1c0.2,0,0.4,0,0.6,0c0,0,0,0,0,0c-0.1-0.1-0.3-0.2-0.5-0.3c-0.6-0.4-0.8-0.5-1.4-0.9
			c0.1-0.2,0.1-0.3,0.1-0.5c0.7,0.5,1,0.7,1.7,1.2c0.8,0.6,1.2,0.9,1.4,1.3c0.1,0.3,0.2,0.5,0.1,0.6c-0.2,0-0.3,0-0.4,0
			c0-0.1,0-0.3-0.1-0.5c-0.1-0.1-0.2-0.4-0.4-0.5c0,0-0.1-0.1-0.1-0.1c0,0-0.1,0-0.1,0c-1.1,0.1-1.6,0.2-2.7,0.3
			C5.4,39.8,5.4,39.7,5.5,39.5z"/>
		<path d="M8.2,35.4c0.9,0.3,1.1,1.1,0.9,1.7c-0.2,0.7-0.9,1-1.7,0.7c-0.9-0.3-1.2-1-0.9-1.7C6.7,35.4,7.4,35.1,8.2,35.4z M7.5,37.3
			c0.6,0.2,1.1,0,1.2-0.4C8.9,36.5,8.6,36,8,35.8c-0.4-0.1-1.1-0.1-1.2,0.4C6.6,36.8,7,37.2,7.5,37.3z"/>
		<path d="M9.9,33c0.3,0.1,0.5,0.2,0.7,0.3c-0.1,0.2-0.1,0.2-0.2,0.4c-0.2-0.1-0.3-0.1-0.4-0.1c0,0,0,0,0,0c0.2,0.2,0.3,0.5,0.1,1
			c-0.2,0.4-0.6,0.7-1.4,0.4c-0.6-0.2-0.9-0.3-1.5-0.6c0.1-0.2,0.1-0.3,0.2-0.4c0.6,0.2,0.8,0.3,1.4,0.6c0.5,0.2,0.9,0.2,1-0.2
			c0.1-0.3,0-0.6-0.2-0.7c-0.1-0.1-0.1-0.1-0.2-0.1c-0.6-0.2-0.9-0.4-1.5-0.6c0.1-0.2,0.1-0.3,0.2-0.4C8.8,32.6,9.1,32.8,9.9,33z"/>
		<path d="M8,30.7c0.3,0.1,0.4,0.2,0.7,0.3c0.1-0.2,0.2-0.4,0.3-0.6c0.1,0.1,0.2,0.1,0.3,0.2C9.2,30.8,9.2,31,9,31.2
			c0.5,0.2,0.8,0.4,1.3,0.6c0.3,0.1,0.5,0.1,0.6-0.1c0.1-0.1,0.1-0.2,0.1-0.3c0.1,0.1,0.2,0.1,0.3,0.1c0,0.1,0,0.2-0.1,0.4
			c-0.1,0.2-0.3,0.3-0.4,0.4c-0.2,0.1-0.4,0-0.7-0.1c-0.5-0.2-0.8-0.4-1.3-0.6c-0.1,0.1-0.1,0.2-0.2,0.4c-0.1-0.1-0.2-0.1-0.3-0.2
			c0.1-0.1,0.1-0.2,0.2-0.4c-0.2-0.1-0.3-0.2-0.6-0.3C8,31,8,30.9,8,30.7z"/>
		<path d="M12.1,31.7c-0.2-0.3-0.7-0.6-1-0.9c0.1-0.2,0.1-0.3,0.2-0.5c0.4,0.3,0.8,0.8,1,1.1C12.2,31.5,12.2,31.6,12.1,31.7z"/>
	</g>
</g>
<path id="SVGID_x5F_1_x5F_" class="st2" d="M17.1,50.2c0,18.2,14.9,32.9,33.2,32.9s33.2-14.7,33.2-32.9"/>
<text class="st0"><textPath  xlink:href="#SVGID_x5F_1_x5F_" startOffset="0%"  class="st1">
<tspan  style="font-family:'MyriadPro-Regular'; font-size:4.3055px;">Lorem ipsum dolor sit amet, consectetuer adipiscing jk</tspan></textPath>
</text>
<path id="SVGID_x5F_2_x5F_" class="st2" d="M19.7,44.5c0-16.9,13.7-30.6,30.6-30.6s30.6,13.7,30.6,30.6"/>
<text class="st0"><textPath  xlink:href="#SVGID_x5F_2_x5F_" startOffset="0%"  class="st1">
<tspan  style="font-family:'MyriadPro-Regular'; font-size:4px;">Lorem ipsum dolor sit amet, consectetuer adipiscing jk</tspan></textPath>
</text>
<g class="st0">
	<g class="st1">
		<path d="M5.8,46.9c2.3-0.7,3.4-1.1,5.7-1.8c2.9-0.9,4.8,0,4.9,5c0,5.7-2.3,8.9-5,9.2c-1.1,0.1-1.6,0.2-2.6,0.3c0,3.6,0,5.3,0,7.4
			c-1.2,0-1.8,0-2.9,0C5.8,61.4,5.8,52.4,5.8,46.9z M8.8,55.3c0.9-0.2,1.4-0.2,2.3-0.4c1.4-0.2,2.3-1.5,2.3-4.1c0-2.6-1-3-2.3-2.6
			c-0.9,0.3-1.4,0.4-2.3,0.7C8.8,51.1,8.8,52.5,8.8,55.3z"/>
		<path d="M31.8,52.8c0.3,9.7-1.9,14.3-6.6,14.4c-4.6,0-7-3.9-7-12.2c-0.1-8.4,2.3-12.9,6.5-14.2C28.6,39.5,31.5,42.1,31.8,52.8z
			 M21.3,54.4c0.1,5.9,1.4,9.5,3.9,9.5c2.8-0.1,3.6-4.5,3.4-10.5c-0.2-6.3-1.4-10-4-9.3C22.2,44.8,21.2,48.5,21.3,54.4z"/>
		<path d="M37,37.1c0.5,9.9,0.7,19.9,1.2,29.9c-1.2,0-1.9,0-3.1,0c-0.5-9.6-0.7-19.3-1.2-28.9C35.1,37.7,35.8,37.5,37,37.1z"/>
		<path d="M41.6,66.9C41.1,56.6,41,46.3,40.5,36c1.6-0.5,2.4-0.7,4.1-1.3c2.1,2.7,5.6,21.1,6.2,25.1c0,0,0,0,0,0
			C50.6,56,50.6,48,50.6,41.7c0-4.5,0-6.6,0-8.4c1,0.3,1.5,0.5,2.6,0.8c0,10.9,0.1,21.9,0.1,32.8c-1.4,0-2.1,0-3.4,0
			c-1.4-2.9-5.5-22.8-6.3-26.3c0,0,0,0,0,0c0.2,2.8,0.4,11.5,0.5,18.1c0.1,4.4,0.2,6.5,0.3,8.3C43.2,66.9,42.7,66.9,41.6,66.9z"/>
		<path d="M59.5,40c-1.7-0.5-2.6-0.7-4.2-1.2c0-2.1,0-3,0-4.1c4.5,1.4,6.9,2.2,11.8,3.7c0,1,0,1.8,0,3.7c-1.8-0.5-2.7-0.8-4.4-1.3
			c0,9.2,0.1,21.2,0.1,26c-1.2,0-1.9,0-3.1,0C59.6,62,59.5,49.5,59.5,40z"/>
		<path d="M79.1,56.6c-2.8-0.4-4.2-0.5-7-0.9c0,3.3,0,5,0,7.6c3.1,0.1,4.6,0.1,7.7,0.2c-0.2,1.6-0.2,2.4-0.4,3.4
			c-4.1,0-6.2,0-10.4,0c0-5.8,0-22.1,0-27.9c4.2,1.3,6.3,2,10.5,3.3c0,1,0,1.7,0,3.4c-2.9-0.8-4.4-1.2-7.4-2.1c0,2.2,0,3.5,0,6.3
			c2.8,0.6,4.2,0.9,7,1.4C79.1,53.4,79.1,54.5,79.1,56.6z"/>
		<path d="M82.1,43.1c2.3,0.7,3.4,1.1,5.6,1.7c4,1.2,6.4,4.9,6.4,11.7c0,6.8-2.4,10.3-6.7,10.3c-2.2,0-3.3,0-5.5,0
			C82,61.3,82.1,48.7,82.1,43.1z M85.1,63.8c0.9,0,1.4,0,2.3,0.1c2.7,0.1,3.8-2.9,3.8-7.7c0-4-1-7.5-3.7-8.3
			c-0.9-0.3-1.4-0.4-2.3-0.6C85.1,52.9,85.1,58.1,85.1,63.8z"/>
	</g>
</g>
<g class="st0">
	<g class="st1">
		<path d="M24.8,48.5c0,3,0,3.9,0,6.3c0,1.9,0.9,2.6,1.8,2.6c1.1,0,1.8-0.8,1.8-2.8c0-2.6,0-3.7,0.1-6.7c0.8-0.1,1.2-0.2,1.9-0.3
			c0,2.9-0.1,4.1-0.1,6.7c-0.1,3.8-1.8,5-3.8,5c-2,0-3.7-1.3-3.7-4.5c0-2.2,0-3.1,0-6.1C23.6,48.7,24,48.6,24.8,48.5z"/>
		<path d="M32.4,47.3c1.5-0.2,2.2-0.3,3.7-0.6c1.9-0.3,3.1,1,3.1,3.5c-0.1,2.8-1.5,4.2-3.3,4.3c-0.7,0-1,0.1-1.7,0.1
			c0,1.8,0,2.7-0.1,4.6c-0.8,0-1.1,0-1.9,0C32.3,54.3,32.4,52.3,32.4,47.3z M34.3,52.6c0.6-0.1,0.9-0.1,1.5-0.1
			c0.9-0.1,1.5-0.6,1.5-1.9c0-1.3-0.6-1.7-1.4-1.6c-0.6,0.1-0.9,0.1-1.5,0.2C34.3,50.5,34.3,51.2,34.3,52.6z"/>
		<path d="M42.1,59.2c-0.8-5-1.2-8.2-2-13c0.8-0.1,1.2-0.2,2-0.3c0.7,5.6,1,8.9,1.1,10.4c0,0,0,0,0,0c0.4-2.5,1.3-7.7,1.9-10.8
			c0.7-0.1,1-0.2,1.7-0.3c0.4,2.3,1.2,8.2,1.4,10.8c0,0,0,0,0,0c0.3-3.2,1.3-9.3,1.7-11.3c0.7-0.1,1.1-0.2,1.8-0.3
			c-1,5.1-1.6,9.8-2.6,14.8c-0.8,0-1.2,0-2,0c-0.4-2.8-1.1-7.7-1.4-10.1c0,0,0,0,0,0c-0.4,2.6-1.2,7.6-1.8,10.1
			C43.3,59.2,42.9,59.2,42.1,59.2z"/>
		<path d="M53.9,55.9c-0.3,1.4-0.4,2.1-0.7,3.3c-0.8,0-1.1,0-1.9,0c1.3-5.1,1.9-10,3.2-15.2c1-0.1,1.4-0.2,2.4-0.4
			c1.2,4.8,1.7,10.5,2.9,15.6c-0.8,0-1.2,0-2,0c-0.3-1.2-0.4-1.9-0.7-3.3C55.8,55.9,55.1,55.9,53.9,55.9z M56.7,53
			c-0.6-3.5-1-5.7-1.1-7c0,0,0,0,0,0c-0.2,1.5-0.7,4.1-1.2,7.1C55.3,53,55.7,53,56.7,53z"/>
		<path d="M62.8,52.8c0,2.9,0,4.4-0.1,6.4c-0.7,0-1.1,0-1.9,0C61,54.1,61,48,61.1,43c1.5-0.2,2.3-0.3,3.8-0.6
			c1.9-0.3,2.9,1.1,2.9,3.8c0,2.4-0.7,4-1.3,4.6c0.4,0.3,1.1,1.4,1.1,4.6c0,0.3,0,0.5,0,0.9c0,1.1,0,2.3,0.1,2.9c-0.7,0-1.1,0-1.8,0
			c-0.2-0.6-0.2-1.6-0.2-3.4c0-0.1,0-0.2,0-0.3c0-1.9-0.2-2.9-1.6-2.8C63.6,52.7,63.3,52.7,62.8,52.8z M62.8,49.6
			c0.6-0.1,1-0.1,1.6-0.1c1-0.1,1.4-1,1.5-2.5c0-1.5-0.5-2.1-1.4-2c-0.7,0.1-1,0.1-1.6,0.2C62.9,46.8,62.9,47.7,62.8,49.6z"/>
		<path d="M69.5,41.8c1.4-0.2,2.1-0.3,3.5-0.5c2.5-0.4,4.2,2,4.2,8.3c0,6.3-1.6,9.6-4.3,9.6c-1.4,0-2.1,0-3.4,0
			C69.5,54.1,69.5,46.7,69.5,41.8z M71.4,56.6c0.6,0,0.9,0,1.4,0c1.7,0,2.4-2.7,2.4-6.8c0-3.5-0.7-6.1-2.4-5.9
			c-0.6,0.1-0.9,0.1-1.4,0.2C71.4,48.5,71.4,52.1,71.4,56.6z"/>
	</g>
</g>
<g class="st0">
	<g class="st1">
		<path d="M3.3,45.6c1.5-0.3,2.3-0.4,3.9-0.7c2-0.3,3.4,0.6,3.5,3c0,2.8-1.6,4.1-3.5,4c-0.7,0-1.1-0.1-1.8-0.1c0,1.6,0,2.4,0,3.8
			c-0.8-0.1-1.3-0.2-2.1-0.3C3.3,51.4,3.3,49.5,3.3,45.6z M5.3,50c0.6,0,0.9,0,1.6,0c1,0,1.6-0.5,1.6-1.7c0-1.2-0.7-1.5-1.6-1.4
			c-0.6,0.1-1,0.1-1.6,0.2C5.3,48.1,5.3,48.7,5.3,50z"/>
		<path d="M18.9,51.5c-1.9,0-2.8-0.1-4.7-0.1c0,1.5,0,2.3,0,3.5c2.1,0.2,3.1,0.4,5.1,0.6c-0.1,1-0.1,1.4-0.2,2.1
			c-2.8-0.4-4.2-0.6-6.9-1c0-3.9-0.1-8.6-0.1-12.5c2.8-0.5,4.2-0.7,7-1.2c0,0.7,0,1.2,0,2.2c-2,0.3-3,0.4-4.9,0.7c0,1.1,0,1.7,0,3
			c1.9-0.1,2.8-0.2,4.7-0.3C18.9,49.6,18.9,50.3,18.9,51.5z"/>
		<path d="M22.9,52.1c0,3,0,4.5,0,6.1c-0.8-0.1-1.2-0.2-2.1-0.3c0-4,0-11.3,0-15.3c1.8-0.3,2.6-0.5,4.4-0.8c2.2-0.4,3.3,0.7,3.3,3.6
			c0,2.6-0.8,4.3-1.5,4.9c0.5,0.4,1.2,1.8,1.2,5.1c0,0.4,0,0.5,0,0.9c0,1.2,0,2.2,0.1,2.7c-0.8-0.1-1.2-0.2-2-0.3
			c-0.2-0.5-0.2-1.4-0.2-3.2c0-0.1,0-0.2,0-0.3c0-1.9-0.3-3.1-1.8-3.1C23.8,52.2,23.5,52.1,22.9,52.1z M22.9,48.9
			c0.7,0,1.1,0,1.8-0.1c1.2-0.1,1.6-1,1.6-2.6c0-1.5-0.5-2.2-1.6-2c-0.7,0.1-1.1,0.2-1.9,0.3C22.9,46,22.9,47,22.9,48.9z"/>
		<path d="M31.8,54.8c0.2,2.1,0.9,2.9,2,3c1.1,0.1,1.6-0.6,1.7-2.2c0-1.8-0.4-2.7-2.1-3.7c-2.7-1.6-3.3-3.9-3.3-6.5
			c0-3.5,1.4-4.8,3.7-5.2c2.6-0.5,3.6,1,3.7,4.3c-0.9,0.1-1.3,0.1-2.2,0.2c-0.1-1.3-0.4-2.5-1.7-2.3c-0.9,0.1-1.4,0.8-1.4,2.2
			c0,1.4,0.4,2,2,2.8c2.9,1.4,3.5,4.5,3.4,7.8c-0.1,4.3-1.5,5.2-4.1,4.8c-2.5-0.4-3.8-1.7-4-5.4C30.5,54.7,31,54.7,31.8,54.8z"/>
		<path d="M39.5,39.4c1.6-0.3,2.4-0.4,4-0.7c2.1-0.4,3.4,0.5,3.4,5.7c0,6-1.7,9.3-3.6,9.2c-0.8,0-1.1-0.1-1.9-0.1
			c0,4-0.1,5.9-0.1,7.5c-0.9-0.1-1.3-0.2-2.1-0.3C39.3,56.5,39.3,43.7,39.5,39.4z M41.4,48.8c0.6,0,1,0,1.6,0c1,0,1.7-1.3,1.7-4
			c0-2.7-0.7-3.3-1.6-3.2c-0.7,0.1-1,0.1-1.7,0.2C41.5,44.1,41.5,45.7,41.4,48.8z"/>
		<path d="M55,52c-1.8,0.1-2.7,0.1-4.6,0.1c0,3.2,0,4.8,0,7.1c2-0.3,3.1-0.4,5.1-0.7c-0.1,1.5-0.1,2.2-0.2,3c-2.8,0.4-4.1,1-7,0.6
			c0-4.4,0.1-19.9,0.1-24.2c2.7-0.5,3.9,0.1,6.6,0.6c0,0.8,0,1.4,0.1,2.9c-1.9-0.3-2.8-0.4-4.6-0.7c0,2,0,3.2,0,5.9
			c1.8,0.1,2.7,0.1,4.5,0.3C54.9,48.9,54.9,50,55,52z"/>
		<path d="M65.3,54.7c-0.3,4.2-1.6,5.7-4.1,6.1c-3.1,0.5-4.6-2.5-4.7-10.6c-0.1-7.8,1.2-11.3,4.4-10.8c2.6,0.4,3.9,2.4,4.2,6.2
			c-0.8-0.1-1.3-0.1-2.1-0.2c-0.2-1.8-0.8-3.3-2.1-3.5c-1.7-0.3-2.3,3.1-2.2,8.1c0.1,4.6,0.7,8.5,2.6,8.3c1.4-0.2,1.8-2.1,1.9-3.5
			C64,54.7,64.5,54.7,65.3,54.7z"/>
		<path d="M68.8,43.4c-1.2-0.2-1.8-0.3-3-0.4c0-1.3,0-1.9-0.1-2.6c3.3,0.6,4.9,0.8,8.2,1.4c0,0.7,0,1.2,0,2.4
			c-1.2-0.2-1.8-0.3-3-0.4c0.1,5.6,0.1,12,0.2,15.4c-0.8,0.1-1.3,0.2-2.1,0.3C69,56,69,49.2,68.8,43.4z"/>
		<path d="M77.4,42.4c0,4.1,0.1,11.7,0.1,15.8c-0.8,0.1-1.3,0.2-2.1,0.3c-0.1-4.1-0.1-12.4-0.2-16.5C76.1,42.1,76.6,42.2,77.4,42.4z
			"/>
		<path d="M82.2,57.5c-1.4-3.8-2.1-10.6-3.5-14.9c0.9,0.2,1.4,0.2,2.3,0.4c0.6,2,0.9,3.7,1.5,6.8c0.4,2.3,0.8,4.1,1,5.5c0,0,0,0,0,0
			c0.2-1.3,0.6-3.2,1.1-5.4c0.6-2.8,1-4.2,1.6-6c0.9,0.1,1.3,0.2,2.2,0.4c-1.5,3.7-2.3,8.7-3.7,12.9C83.7,57.3,83.2,57.3,82.2,57.5z
			"/>
		<path d="M96.3,51.1c-1.9,0.1-2.8,0.1-4.7,0.1c0,1.2,0,1.8,0,3c2.1-0.3,3.2-0.4,5.3-0.6c-0.1,0.7-0.2,1.1-0.3,1.8
			c-2.9,0.4-4.3,0.6-7.1,1.1c0.1-4,0.1-8.1,0.1-12c2.8,0.5,4.2,0.7,7,1.2c0,0.7,0,1,0,1.7c-1.9-0.3-2.9-0.4-4.9-0.7c0,1,0,1.5,0,2.5
			c1.9,0.1,2.8,0.2,4.7,0.3C96.3,50.1,96.3,50.4,96.3,51.1z"/>
	</g>
</g>
<g class="st0">
	<g class="st1">
		<path d="M21.1,43.8c2.1-0.7,3.2-1,5.3-1.5c3-0.8,4.1,1.2,4.1,3.5c0,2-0.7,3.2-1.6,3.8c0.8,0.4,1.9,1.7,1.9,4c0,3-1.7,4.9-4.3,4.3
			c-2.2-0.6-3.3-0.9-5.5-1.6C21.1,51.2,21.1,48.7,21.1,43.8z M26.1,48.4c1.3-0.1,1.8-0.8,1.8-2c0-1.2-0.7-1.7-1.7-1.5
			c-1,0.2-1.5,0.3-2.5,0.5c0,1.3,0,1.9,0,3.2C24.6,48.5,25.1,48.4,26.1,48.4z M23.7,54.6c1,0.2,1.4,0.3,2.4,0.4
			c1.4,0.2,2.1-0.5,2.1-1.9c0-1.3-0.6-2.2-2.1-2.2c-1,0-1.4,0-2.4-0.1C23.7,52.4,23.7,53.1,23.7,54.6z"/>
		<path d="M35.5,40.4c0,4.6,0,6.8,0,11.4c0,3.7,1.2,4.9,2.6,5c1.5,0.1,2.5-1.2,2.5-4.9c0-4.9,0-7.3,0-12.1c1.1-0.1,1.6-0.2,2.7-0.2
			c0,4.9,0,7.3,0,12.2c0,7.1-2.5,8.8-5.3,8.4c-2.8-0.4-5.2-2.5-5.2-8.6c0-4.3,0-6.4,0-10.7C33.9,40.7,34.4,40.6,35.5,40.4z"/>
		<path d="M46.1,39.4c1.1,0,1.6-0.1,2.7-0.1c0,7,0,10.5,0,17.5c2.5,0,3.8,0,6.3-0.1c-0.1,1.5-0.2,2.2-0.3,3.7
			c-3.5,0.2-5.2,0.2-8.7,0C46.1,52.1,46.1,47.9,46.1,39.4z"/>
		<path d="M67.3,59.1c-0.8,0.1-1.2,0.2-2,0.3c-0.1-0.6-0.2-1.2-0.2-1.8c-0.7,1.5-1.9,2.5-3.6,2.7c-3.6,0.4-5.7-4.1-5.7-10
			c0-6.3,2.2-11,6.1-10.5c3.2,0.4,5.1,3.5,5.4,6.6c-1.1-0.1-1.6-0.1-2.7-0.2c-0.3-1.3-0.9-2.9-2.7-3.1c-2.6-0.2-3.3,3.3-3.3,6.9
			c0,3.5,0.8,7,3.3,6.8c2.3-0.2,2.7-2.7,2.7-4.4c0-0.1,0-0.1,0-0.2c-1.1,0-1.6,0.1-2.7,0.1c0-1.4,0-2.1,0-3.5c2.2,0,3.2,0.1,5.4,0.1
			C67.3,53,67.3,55,67.3,59.1z"/>
		<path d="M78.3,50.9C76,51,74.8,51,72.5,51.1c0,1.6,0,2.4,0,4.1c2.6-0.4,3.9-0.6,6.4-1.1c-0.1,0.9-0.2,1.4-0.3,2.3
			c-3.4,1.1-5.2,1.5-8.7,2.3c0-6.9,0-10.3,0-17.1c3.5,0.7,5.2,1.2,8.7,2.3c0,0.9,0,1.3,0,2.2c-2.4-0.5-3.6-0.7-6.1-1.1
			c0,1.4,0,2.1,0,3.4c2.4,0.1,3.5,0.2,5.8,0.4C78.3,49.5,78.3,50,78.3,50.9z"/>
	</g>
</g>
<g class="st0">
	<g class="st1">
		<path d="M23.3,40.8c2,0.2,3,0.3,5.1,0.5c2.6,0.2,4.4,1.7,4.3,4.9c0,3.6-2.1,5.8-4.5,6.1c-0.9,0.1-1.4,0.2-2.3,0.3c0,3,0,4.5,0,6.4
			c-1,0.3-1.5,0.4-2.5,0.6C23.3,54.4,23.3,46,23.3,40.8z M25.9,49.1c0.8,0,1.2-0.1,2-0.1c1.2-0.1,2.1-0.9,2.1-2.7
			c0-1.8-0.9-2.4-2-2.5c-0.8,0-1.2-0.1-2.1-0.1C25.9,45.6,25.9,46.7,25.9,49.1z"/>
		<path d="M37.4,42c-0.1,4.6-0.1,9.7-0.2,14.4c-1.1,0.2-1.6,0.3-2.7,0.6c0.1-4.7,0.1-10.4,0.2-15.1C35.8,41.9,36.3,41.9,37.4,42z"/>
		<path d="M40.2,55.8c0-4.6,0.1-9,0.1-13.6c1.3,0.1,2,0.1,3.3,0.2c1.5,2.7,4.4,8,5,9.4c0,0,0,0,0,0c-0.1-1.3-0.1-3.5-0.1-5.6
			c0-1.5,0-2.2,0-3.7c1,0,1.5,0,2.4,0c0,4.9,0,7.6,0,12.4c-1.3,0-1.9,0-3.2,0c-1.3-2.3-4.5-8.3-5.2-9.9c0,0,0,0,0,0
			c0.1,1.2,0.1,4.1,0.1,6.5c0,1.6,0,2.5,0,3.9C41.7,55.5,41.2,55.6,40.2,55.8z"/>
		<path d="M64.4,52.3c-0.5,2.9-2.2,4-5.3,3.5c-4-0.6-5.9-3.4-5.9-7.1c0-3.6,1.9-6.5,5.9-6.8c3.3-0.2,4.9,1.5,5.2,4.1
			c-1.1,0-1.6,0-2.7,0c-0.3-1.1-1-2.2-2.6-2.1c-2.2,0.1-3,2.2-3,4.7c0,2.3,0.8,4.7,3.2,5c1.8,0.3,2.3-0.9,2.5-1.8
			C62.8,52.1,63.4,52.2,64.4,52.3z"/>
		<path d="M66.2,41.5c1.1-0.1,1.6-0.2,2.7-0.3c0,1.9,0.1,3.3,0.1,6.2c2,0,3,0.1,5,0.1c0-3.2,0-4.8-0.1-6.8c1.1-0.1,1.6-0.2,2.7-0.3
			c0,5.2,0,13.9,0,19.1c-1-0.2-1.5-0.4-2.6-0.6c0-2.2,0-4.1-0.1-7.7c-2-0.2-3-0.3-5-0.5c0,3.2,0.1,4.9,0.1,7
			c-1.1-0.3-1.6-0.4-2.7-0.6C66.4,52.4,66.4,46.2,66.2,41.5z"/>
	</g>
</g>
<g class="st0">
	<g class="st1">
		<path d="M13.4,62.3c-2.3-6.1-3.4-17.7-5.6-24.6c1.4,0.4,2.1,0.6,3.6,1c0.9,3.1,1.4,6,2.4,11.1c0.7,3.8,1.3,7,1.7,9.2c0,0,0,0,0,0
			c0.3-2,0.9-5.1,1.6-8.5c0.9-4.6,1.4-6.9,2.4-9.4c1.4,0.4,2.1,0.6,3.5,1c-2.2,5.2-3.3,14.2-5.5,20.2C15.8,62.3,15,62.3,13.4,62.3z"
			/>
		<path d="M26.2,58.3c-0.5,1.8-0.7,2.7-1.2,4c-1.3,0-2,0-3.3,0c2.1-5.9,3.1-14,5.2-19.2c1.7,0.4,2.6,0.7,4.3,1
			c2.3,6.2,3.5,12.4,5.7,18.1c-1.4,0-2.1,0-3.6,0c-0.5-1.3-0.8-2.1-1.3-3.8C29.7,58.4,28.5,58.4,26.2,58.3z M31.2,55.1
			c-1.2-4.3-1.9-7.2-2.3-8.9c0,0,0,0,0,0c-0.4,1.7-1.1,4.8-2,8.5C28.6,54.9,29.5,54.9,31.2,55.1z"/>
		<path d="M38.7,45.6c1.4,0.2,2.1,0.3,3.4,0.5c0,4.8,0,8.2,0,13.5c3.1,0,4.7,0,7.8-0.1c-0.2,1.1-0.2,1.7-0.4,2.8
			c-4.3,0-6.5,0-10.9,0C38.8,56.6,38.7,51.4,38.7,45.6z"/>
		<path d="M51.9,46.5c1.4,0,2-0.1,3.4-0.2c0,4.9,0,8,0,13.2c3.1,0,4.7,0,7.9,0c-0.2,1.2-0.2,1.7-0.4,2.7c-4.3,0-6.5,0-10.9,0
			C51.9,56.2,51.9,52.7,51.9,46.5z"/>
		<path d="M76,53.9c-3,0.3-4.5,0.5-7.5,0.8c0,2,0,3,0,4.8c3.3-0.1,5-0.1,8.3-0.2c-0.2,1.4-0.3,2-0.4,3c-4.5,0-6.7,0-11.2,0
			c0-5.7,0.1-11.7,0.1-17.3c4.5-0.9,6.8-1.4,11.2-2.7c0,1,0,1.7,0,3c-3.1,0.8-4.7,1.1-7.9,1.8c0,1.5,0,2.3,0,4
			c3-0.4,4.5-0.7,7.6-1.2C76,51.5,76,52.3,76,53.9z"/>
		<path d="M83.1,62.3c0-2.1,0-3.8,0.1-7.3c0-0.3,0-0.5-0.1-0.8c-2.1-5.9-3.2-9.3-5.3-12.3c1.5-0.4,2.3-0.7,3.8-1.1
			c1.2,1.9,2.7,6.5,3.5,9.2c0.7-2.8,2.4-8.7,3.6-11.3c1.4-0.4,2.1-0.6,3.5-1c-2.1,4.5-3.2,9.4-5.4,16.1c-0.1,0.2-0.1,0.3-0.1,0.8
			c0,3.7,0,5.5,0,7.7C85.2,62.3,84.5,62.3,83.1,62.3z"/>
	</g>
</g>
<g class="st0">
	<g class="st1">
		<path d="M17.4,40.3c2.2,0,3.3,0,5.4,0c3,0,4.1,1.6,4.1,3.8c0,1.9-0.8,3.5-1.6,4.2c0.8,0.4,1.9,1.6,1.9,3.9c0,3-1.7,5-4.3,5.8
			c-2.2,0.7-3.3,1-5.5,1.7C17.4,54.5,17.4,45.5,17.4,40.3z M22.5,47.1c1.3-0.1,1.8-1.1,1.8-2.4c0-1.3-0.7-1.9-1.7-1.9
			c-1,0-1.5,0.1-2.5,0.1c0,1.6,0,2.6,0,4.5C21,47.2,21.5,47.2,22.5,47.1z M20,56.3c1-0.3,1.4-0.4,2.4-0.6c1.4-0.4,2.1-1.3,2.1-3
			c0-1.5-0.6-2.4-2.1-2.2c-1,0.2-1.4,0.3-2.4,0.4C20,53.2,20,54.4,20,56.3z"/>
		<path d="M31.9,49.5c0,2.7,0,4-0.1,5.9c-1.1,0.3-1.6,0.4-2.6,0.7c0.1-4.8,0.1-11.2,0.2-15.9c2.2,0,3.3,0,5.5,0
			c2.7,0,4.2,1.4,4.1,3.5c0,1.9-0.9,3.1-1.8,3.6c0.6,0.2,1.5,1,1.5,3.4c0,0.3,0,0.4,0,0.7c0,0.9,0,1.9,0.2,2.4
			c-1,0.2-1.5,0.3-2.6,0.5C36,54,36,53.1,36,51.5c0-0.1,0-0.1,0-0.2c0-1.6-0.3-2.4-2.3-2.1C32.9,49.4,32.6,49.4,31.9,49.5z
			 M31.9,46.6c0.9-0.1,1.4-0.1,2.3-0.2c1.5-0.1,2-0.9,2.1-2.1c0-1.2-0.6-1.8-2-1.8c-0.9,0-1.4,0-2.3,0.1
			C31.9,44.1,31.9,44.9,31.9,46.6z"/>
		<path d="M43.9,40.3c0,4.6,0,8.2,0,12.8c-1.1,0.1-1.6,0.2-2.7,0.4c0-4.6,0-8.6,0.1-13.2C42.3,40.3,42.9,40.3,43.9,40.3z"/>
		<path d="M46.8,40.3c2,0,3,0,4.9,0c3.6,0,6,2.3,6,6.3c0,4-2.3,6.3-6.1,6.1c-1.9-0.1-2.9,0-4.8,0.1C46.8,48,46.8,45,46.8,40.3z
			 M49.5,50.5c0.8,0,1.2,0,2,0c2.4,0.1,3.4-1.6,3.4-4.1c0-2.2-1-4.1-3.4-4c-0.8,0-1.2,0-2,0C49.5,45.7,49.5,47.3,49.5,50.5z"/>
		<path d="M71,56.2c-0.8-0.2-1.2-0.3-2-0.5c-0.1-0.4-0.2-0.8-0.2-1.3c-0.7,0.8-1.9,0.9-3.6,0.5c-3.7-0.9-5.7-3.8-5.7-7.8
			c0-4.3,2.1-7,6-7c3.2,0,5.1,1.7,5.4,4.6c-1.1-0.1-1.6-0.1-2.7-0.2c-0.3-1.1-0.9-2.3-2.8-2.3c-2.6-0.1-3.3,2.3-3.2,5
			c0,2.6,0.9,5.1,3.4,5.6c2.3,0.5,2.7-1.3,2.7-2.8c0-0.1,0-0.1,0-0.2c-1.1-0.2-1.6-0.3-2.7-0.5c0-1.1,0-1.7,0-2.8
			c2.2,0.2,3.2,0.3,5.4,0.6C70.9,51.2,70.9,53.6,71,56.2z"/>
		<path d="M82,51.4c-2.3-0.4-3.5-0.6-5.8-1c0,2,0,3,0,4.8c2.6,0.7,3.9,1,6.4,1.7c-0.1,1.3-0.2,1.9-0.3,2.8c-3.4-1-5.1-1.6-8.6-2.6
			c-0.1-4.9-0.1-11.9-0.2-16.7c3.5,0,5.3,0,8.8,0c0,0.9,0,1.5,0,2.8c-2.5-0.1-3.7-0.1-6.2-0.2c0,1.4,0,2.3,0,4
			c2.4,0.3,3.5,0.4,5.9,0.6C82,49,82,49.8,82,51.4z"/>
	</g>
</g>
<g class="st0">
	<g class="st1">
		<path d="M3.4,33.7c1.7,0,2.5,0,4.2,0c3.1,0,5.1,4,5.1,8.9c0,4.8-2,9-5.3,8.4c-1.6-0.3-2.4-0.4-4.1-0.7C3.4,41.8,3.4,42.3,3.4,33.7
			z M5.6,47.3c0.7,0.1,1,0.2,1.7,0.3c2,0.3,2.9-2.1,3-5.2c0-2.6-0.8-5.2-2.9-5.3c-0.7,0-1,0-1.7,0C5.6,41.7,5.6,42.8,5.6,47.3z"/>
		<path d="M24.5,43.7c-0.1,5.4-1.9,10.1-5.4,9.6c-3.3-0.6-5-5.5-5-10.3c0.1-4.9,2-9.5,5.4-9.5C22.6,33.4,24.5,37.8,24.5,43.7z
			 M16.5,43.1c0,3.4,0.8,6.3,2.7,6.6c2.1,0.3,2.8-2.7,2.9-6.1c0-3.5-0.8-6.5-2.8-6.5C17.4,37,16.5,39.7,16.5,43.1z"/>
		<path d="M27.9,54.4c-1-8.9-1.5-12-2.5-20.7c1,0,1.5,0,2.5,0c0.9,10,1.3,13.8,1.4,16.1c0,0,0,0,0,0c0.4-3.8,1.6-10.9,2.2-16.1
			c0.8,0,1.2,0,2.1,0c0.5,4.2,1.5,12.7,1.9,16.8c0,0,0,0,0,0c0.4-4.8,1.5-13.4,1.9-16.8c0.9,0,1.4,0,2.3,0
			c-1.2,8.7-1.8,13.6-3.1,22.2c-1-0.2-1.5-0.2-2.4-0.4c-0.5-4.9-1.4-12-1.8-15.6c0,0,0,0,0,0c-0.4,3.8-1.5,10.7-2.1,15
			C29.4,54.7,28.9,54.6,27.9,54.4z"/>
		<path d="M40.8,56.6c0-8.7,0.1-14.1,0.1-22.9c1.1,0,1.7,0,2.9,0c1.3,4.9,3.8,15.3,4.3,18c0,0,0,0,0,0c-0.1-2.6-0.1-7-0.1-11
			c0-2.9,0-4.4,0-7c0.8,0,1.3,0,2.1,0c0,8.8,0,15.6,0,24.4c-1.1-0.2-1.7-0.3-2.8-0.5c-1.2-4.5-3.9-16.2-4.4-18.9c0,0,0,0,0,0
			c0.1,2,0.1,7,0.1,11.2c0,2.9,0,4.3,0,7C42.1,56.8,41.7,56.8,40.8,56.6z"/>
		<path d="M54.3,58.9c-1.1-9-1.7-16.4-2.8-25.2c1,0,1.5,0,2.5,0c1,10.1,1.5,17.1,1.6,19.9c0,0,0,0,0,0c0.4-4.6,1.4-14.6,2-19.9
			c0.8,0,1.2,0,2.1,0c0.6,4.2,1.7,15.6,2.1,20.6c0,0,0,0,0,0c0.3-5.9,1.3-17.1,1.7-20.6c0.9,0,1.4,0,2.3,0c-1.1,8.9-1.7,18-2.8,26.6
			c-1-0.2-1.5-0.2-2.4-0.4c-0.6-5-1.6-14.6-2-19.2c0,0,0,0,0,0c-0.4,4.7-1.3,14.2-1.9,18.5C55.8,59.1,55.3,59.1,54.3,58.9z"/>
		<path d="M68.5,55.5c-0.3,2.5-0.5,3.7-0.8,5.7c-0.9-0.2-1.4-0.2-2.3-0.4c1.4-8.6,2.1-18.1,3.5-27.1c1.2,0,1.7,0,2.9,0
			c1.5,9.6,2.5,19.3,4,28.9c-1-0.2-1.5-0.3-2.4-0.4c-0.4-2.1-0.6-3.4-0.9-6.1C70.9,55.8,70.1,55.7,68.5,55.5z M71.9,50.7
			c-0.8-6.6-1.3-10.7-1.6-13.1c0,0,0,0,0,0c-0.2,2.6-0.8,7.4-1.3,12.8C70.2,50.5,70.8,50.6,71.9,50.7z"/>
		<path d="M79.3,51.8c0,5.2,0,7.9,0.1,11.5c-0.9-0.2-1.4-0.2-2.3-0.4c-0.1-9.7-0.1-19.4-0.2-29.1c1.9,0,2.8,0,4.7,0
			c2.3,0,3.6,2.7,3.6,7.7c0,4.3-0.7,6.9-1.5,7.8c0.5,0.7,1.3,2.8,1.4,8.4c0,0.6,0,0.9,0,1.5c0,2,0,4,0.2,5.1
			c-0.9-0.2-1.3-0.2-2.2-0.4c-0.2-1-0.2-2.8-0.3-6.1c0-0.2,0-0.3,0-0.4c0-3.4-0.3-5.2-2-5.4C80.2,51.9,79.9,51.8,79.3,51.8z
			 M79.3,46.1c0.8,0.1,1.2,0.1,1.9,0.1c1.3,0.1,1.7-1.4,1.7-4.1c0-2.6-0.6-3.9-1.7-3.9c-0.8,0-1.2,0-2,0
			C79.3,41.1,79.3,42.8,79.3,46.1z"/>
		<path d="M87.2,33.8c1.7,0,2.5,0,4.2,0c3.1,0,5.2,4.7,5.2,15.8c0,10.9-1.9,16.4-5.2,15.8c-1.6-0.3-2.5-0.4-4.1-0.7
			C87.3,54.3,87.3,44,87.2,33.8z M89.7,60.4c0.7,0.1,1,0.2,1.7,0.3c2,0.3,2.9-4.1,2.9-11.3c0-6-0.9-10.9-3-10.9c-0.7,0-1,0-1.7,0
			C89.6,46.2,89.6,52.5,89.7,60.4z"/>
	</g>
</g>
</svg>
