<?xml version="1.0" encoding="utf-8"?>
<!-- Generator: Adobe Illustrator 24.3.0, SVG Export Plug-In . SVG Version: 6.00 Build 0)  -->
<svg version="1.1" id="Layer_1" xmlns="http://www.w3.org/2000/svg" xmlns:xlink="http://www.w3.org/1999/xlink" x="0px" y="0px"
	 viewBox="0 0 100 100" style="enable-background:new 0 0 100 100;" xml:space="preserve">
<style type="text/css">
	.st0{fill:none;}
	.st1{display:none;}
	.st2{display:inline;}
</style>
<g>
	<g>
		<path d="M13.1,39.6v13.7h-2.8l-5.5-9.2v9.2H2V39.6h2.8l5.5,9.2v-9.2H13.1z"/>
		<path d="M30.6,46.1v0.6c0,1.4-0.2,2.6-0.7,3.6c-0.5,1-1.2,1.8-2,2.3c-0.9,0.5-1.9,0.8-3,0.8c-1.1,0-2.1-0.3-3-0.8
			c-0.9-0.5-1.6-1.3-2.1-2.3c-0.5-1-0.7-2.2-0.7-3.6v-0.6c0-1.4,0.2-2.6,0.7-3.6c0.5-1,1.2-1.8,2.1-2.3s1.9-0.8,3-0.8
			c1.1,0,2.2,0.3,3,0.8c0.9,0.5,1.6,1.3,2.1,2.3S30.6,44.7,30.6,46.1z M27.7,46.8v-0.7c0-1-0.1-1.8-0.4-2.4s-0.6-1.2-1-1.5
			c-0.4-0.3-1-0.5-1.6-0.5c-0.6,0-1.2,0.2-1.6,0.5c-0.4,0.3-0.8,0.8-1,1.5c-0.2,0.7-0.3,1.5-0.3,2.4v0.7c0,1,0.1,1.8,0.4,2.4
			c0.2,0.7,0.6,1.2,1,1.5s1,0.5,1.6,0.5c0.6,0,1.2-0.2,1.6-0.5s0.8-0.8,1-1.5C27.6,48.6,27.7,47.7,27.7,46.8z"/>
		<path d="M36.5,39.6h5.1c1,0,1.9,0.2,2.7,0.5c0.8,0.3,1.3,0.8,1.7,1.4c0.4,0.6,0.6,1.4,0.6,2.3c0,0.7-0.1,1.4-0.4,1.9
			c-0.2,0.5-0.6,1-1,1.3c-0.4,0.3-1,0.6-1.6,0.8l-0.9,0.5h-4.4l0-2.2h3.3c0.5,0,0.9-0.1,1.2-0.3c0.3-0.2,0.6-0.4,0.7-0.7
			c0.2-0.3,0.2-0.7,0.2-1.1c0-0.7-0.2-1.2-0.5-1.6c-0.4-0.4-0.9-0.6-1.7-0.6h-2.3v11.5h-2.8V39.6z M44.1,53.3L41,47.2l3,0l3.2,6v0.1
			H44.1z"/>
		<path d="M52.6,39.6H55l0.4,9.8v3.9h-2.8V39.6z M53.9,39.6h2.4l3.5,10l3.5-10h2.4l-4.9,13.7h-1.9L53.9,39.6z M64.6,39.6H67v13.7
			h-2.8v-3.9L64.6,39.6z"/>
		<path d="M78.9,42l-3.7,11.3h-3l5.1-13.7h1.9L78.9,42z M81.8,48.2v2.2h-7.2v-2.2H81.8z M82,53.3L78.2,42l-0.3-2.3h1.9L85,53.3H82z"
			/>
		<path d="M92.9,39.6v13.7h-2.8V39.6H92.9z M98.9,51.1v2.2H92v-2.2H98.9z"/>
	</g>
</g>
<path id="SVGID_x5F_1_x5F_" class="st0" d="M80.9,50c0,17.1-13.9,30.9-30.9,30.9S19.1,67.1,19.1,50S32.9,19.1,50,19.1
	S80.9,32.9,80.9,50z"/>
<text class="st1"><textPath  xlink:href="#SVGID_x5F_1_x5F_" startOffset="78.646%"  class="st2">
<tspan  style="font-family:'MyriadPro-Regular'; font-size:4px;">It is a long established fact that a reader will be distracted by the readable content of a page when looking at its layout, </tspan></textPath>
</text>
<path id="SVGID_x5F_2_x5F_" class="st0" d="M17.1,50.2c0,18.2,14.9,32.9,33.2,32.9s33.2-14.7,33.2-32.9"/>
<text class="st1"><textPath  xlink:href="#SVGID_x5F_2_x5F_" startOffset="0%"  class="st2">
<tspan  style="font-family:'MyriadPro-Regular'; font-size:4.3055px;">Lorem ipsum dolor sit amet, consectetuer adipiscing jk</tspan></textPath>
</text>
<path id="SVGID_x5F_3_x5F_" class="st0" d="M19.7,44.5c0-16.9,13.7-30.6,30.6-30.6s30.6,13.7,30.6,30.6"/>
<text class="st1"><textPath  xlink:href="#SVGID_x5F_3_x5F_" startOffset="0%"  class="st2">
<tspan  style="font-family:'MyriadPro-Regular'; font-size:4px;">Lorem ipsum dolor sit amet, consectetuer adipiscing jk</tspan></textPath>
</text>
<g class="st1">
	<g class="st2">
		<path d="M5.8,46.9c2.3-0.7,3.4-1.1,5.7-1.8c2.9-0.9,4.8,0,4.9,5c0,5.7-2.3,8.9-5,9.2c-1.1,0.1-1.6,0.2-2.6,0.3c0,3.6,0,5.3,0,7.4
			c-1.2,0-1.8,0-2.9,0C5.8,61.4,5.8,52.4,5.8,46.9z M8.8,55.3c0.9-0.2,1.4-0.2,2.3-0.4c1.4-0.2,2.3-1.5,2.3-4.1c0-2.6-1-3-2.3-2.6
			c-0.9,0.3-1.4,0.4-2.3,0.7C8.8,51.1,8.8,52.5,8.8,55.3z"/>
		<path d="M31.8,52.8c0.3,9.7-1.9,14.3-6.6,14.4c-4.6,0-7-3.9-7-12.2c-0.1-8.4,2.3-12.9,6.5-14.2C28.6,39.5,31.5,42.1,31.8,52.8z
			 M21.3,54.4c0.1,5.9,1.4,9.5,3.9,9.5c2.8-0.1,3.6-4.5,3.4-10.5c-0.2-6.3-1.4-10-4-9.3C22.2,44.8,21.2,48.5,21.3,54.4z"/>
		<path d="M37,37.1c0.5,9.9,0.7,19.9,1.2,29.9c-1.2,0-1.9,0-3.1,0c-0.5-9.6-0.7-19.3-1.2-28.9C35.1,37.7,35.8,37.5,37,37.1z"/>
		<path d="M41.6,66.9C41.1,56.6,41,46.3,40.5,36c1.6-0.5,2.4-0.7,4.1-1.3c2.1,2.7,5.6,21.1,6.2,25.1c0,0,0,0,0,0
			C50.6,56,50.6,48,50.6,41.7c0-4.5,0-6.6,0-8.4c1,0.3,1.5,0.5,2.6,0.8c0,10.9,0.1,21.9,0.1,32.8c-1.4,0-2.1,0-3.4,0
			c-1.4-2.9-5.5-22.8-6.3-26.3c0,0,0,0,0,0c0.2,2.8,0.4,11.5,0.5,18.1c0.1,4.4,0.2,6.5,0.3,8.3C43.2,66.9,42.7,66.9,41.6,66.9z"/>
		<path d="M59.5,40c-1.7-0.5-2.6-0.7-4.2-1.2c0-2.1,0-3,0-4.1c4.5,1.4,6.9,2.2,11.8,3.7c0,1,0,1.8,0,3.7c-1.8-0.5-2.7-0.8-4.4-1.3
			c0,9.2,0.1,21.2,0.1,26c-1.2,0-1.9,0-3.1,0C59.6,62,59.5,49.5,59.5,40z"/>
		<path d="M79.1,56.6c-2.8-0.4-4.2-0.5-7-0.9c0,3.3,0,5,0,7.6c3.1,0.1,4.6,0.1,7.7,0.2c-0.2,1.6-0.2,2.4-0.4,3.4
			c-4.1,0-6.2,0-10.4,0c0-5.8,0-22.1,0-27.9c4.2,1.3,6.3,2,10.5,3.3c0,1,0,1.7,0,3.4c-2.9-0.8-4.4-1.2-7.4-2.1c0,2.2,0,3.5,0,6.3
			c2.8,0.6,4.2,0.9,7,1.4C79.1,53.4,79.1,54.5,79.1,56.6z"/>
		<path d="M82.1,43.1c2.3,0.7,3.4,1.1,5.6,1.7c4,1.2,6.4,4.9,6.4,11.7c0,6.8-2.4,10.3-6.7,10.3c-2.2,0-3.3,0-5.5,0
			C82,61.3,82.1,48.7,82.1,43.1z M85.1,63.8c0.9,0,1.4,0,2.3,0.1c2.7,0.1,3.8-2.9,3.8-7.7c0-4-1-7.5-3.7-8.3
			c-0.9-0.3-1.4-0.4-2.3-0.6C85.1,52.9,85.1,58.1,85.1,63.8z"/>
	</g>
</g>
<g class="st1">
	<g class="st2">
		<path d="M24.8,48.5c0,3,0,3.9,0,6.3c0,1.9,0.9,2.6,1.8,2.6c1.1,0,1.8-0.8,1.8-2.8c0-2.6,0-3.7,0.1-6.7c0.8-0.1,1.2-0.2,1.9-0.3
			c0,2.9-0.1,4.1-0.1,6.7c-0.1,3.8-1.8,5-3.8,5c-2,0-3.7-1.3-3.7-4.5c0-2.2,0-3.1,0-6.1C23.6,48.7,24,48.6,24.8,48.5z"/>
		<path d="M32.4,47.3c1.5-0.2,2.2-0.3,3.7-0.6c1.9-0.3,3.1,1,3.1,3.5c-0.1,2.8-1.5,4.2-3.3,4.3c-0.7,0-1,0.1-1.7,0.1
			c0,1.8,0,2.7-0.1,4.6c-0.8,0-1.1,0-1.9,0C32.3,54.3,32.4,52.3,32.4,47.3z M34.3,52.6c0.6-0.1,0.9-0.1,1.5-0.1
			c0.9-0.1,1.5-0.6,1.5-1.9c0-1.3-0.6-1.7-1.4-1.6c-0.6,0.1-0.9,0.1-1.5,0.2C34.3,50.5,34.3,51.2,34.3,52.6z"/>
		<path d="M42.1,59.2c-0.8-5-1.2-8.2-2-13c0.8-0.1,1.2-0.2,2-0.3c0.7,5.6,1,8.9,1.1,10.4c0,0,0,0,0,0c0.4-2.5,1.3-7.7,1.9-10.8
			c0.7-0.1,1-0.2,1.7-0.3c0.4,2.3,1.2,8.2,1.4,10.8c0,0,0,0,0,0c0.3-3.2,1.3-9.3,1.7-11.3c0.7-0.1,1.1-0.2,1.8-0.3
			c-1,5.1-1.6,9.8-2.6,14.8c-0.8,0-1.2,0-2,0c-0.4-2.8-1.1-7.7-1.4-10.1c0,0,0,0,0,0c-0.4,2.6-1.2,7.6-1.8,10.1
			C43.3,59.2,42.9,59.2,42.1,59.2z"/>
		<path d="M53.9,55.9c-0.3,1.4-0.4,2.1-0.7,3.3c-0.8,0-1.1,0-1.9,0c1.3-5.1,1.9-10,3.2-15.2c1-0.1,1.4-0.2,2.4-0.4
			c1.2,4.8,1.7,10.5,2.9,15.6c-0.8,0-1.2,0-2,0c-0.3-1.2-0.4-1.9-0.7-3.3C55.8,55.9,55.1,55.9,53.9,55.9z M56.7,53
			c-0.6-3.5-1-5.7-1.1-7c0,0,0,0,0,0c-0.2,1.5-0.7,4.1-1.2,7.1C55.3,53,55.7,53,56.7,53z"/>
		<path d="M62.8,52.8c0,2.9,0,4.4-0.1,6.4c-0.7,0-1.1,0-1.9,0C61,54.1,61,48,61.1,43c1.5-0.2,2.3-0.3,3.8-0.6
			c1.9-0.3,2.9,1.1,2.9,3.8c0,2.4-0.7,4-1.3,4.6c0.4,0.3,1.1,1.4,1.1,4.6c0,0.3,0,0.5,0,0.9c0,1.1,0,2.3,0.1,2.9c-0.7,0-1.1,0-1.8,0
			c-0.2-0.6-0.2-1.6-0.2-3.4c0-0.1,0-0.2,0-0.3c0-1.9-0.2-2.9-1.6-2.8C63.6,52.7,63.3,52.7,62.8,52.8z M62.8,49.6
			c0.6-0.1,1-0.1,1.6-0.1c1-0.1,1.4-1,1.5-2.5c0-1.5-0.5-2.1-1.4-2c-0.7,0.1-1,0.1-1.6,0.2C62.9,46.8,62.9,47.7,62.8,49.6z"/>
		<path d="M69.5,41.8c1.4-0.2,2.1-0.3,3.5-0.5c2.5-0.4,4.2,2,4.2,8.3c0,6.3-1.6,9.6-4.3,9.6c-1.4,0-2.1,0-3.4,0
			C69.5,54.1,69.5,46.7,69.5,41.8z M71.4,56.6c0.6,0,0.9,0,1.4,0c1.7,0,2.4-2.7,2.4-6.8c0-3.5-0.7-6.1-2.4-5.9
			c-0.6,0.1-0.9,0.1-1.4,0.2C71.4,48.5,71.4,52.1,71.4,56.6z"/>
	</g>
</g>
<g class="st1">
	<g class="st2">
		<path d="M3.3,45.6c1.5-0.3,2.3-0.4,3.9-0.7c2-0.3,3.4,0.6,3.5,3c0,2.8-1.6,4.1-3.5,4c-0.7,0-1.1-0.1-1.8-0.1c0,1.6,0,2.4,0,3.8
			c-0.8-0.1-1.3-0.2-2.1-0.3C3.3,51.4,3.3,49.5,3.3,45.6z M5.3,50c0.6,0,0.9,0,1.6,0c1,0,1.6-0.5,1.6-1.7c0-1.2-0.7-1.5-1.6-1.4
			c-0.6,0.1-1,0.1-1.6,0.2C5.3,48.1,5.3,48.7,5.3,50z"/>
		<path d="M18.9,51.5c-1.9,0-2.8-0.1-4.7-0.1c0,1.5,0,2.3,0,3.5c2.1,0.2,3.1,0.4,5.1,0.6c-0.1,1-0.1,1.4-0.2,2.1
			c-2.8-0.4-4.2-0.6-6.9-1c0-3.9-0.1-8.6-0.1-12.5c2.8-0.5,4.2-0.7,7-1.2c0,0.7,0,1.2,0,2.2c-2,0.3-3,0.4-4.9,0.7c0,1.1,0,1.7,0,3
			c1.9-0.1,2.8-0.2,4.7-0.3C18.9,49.6,18.9,50.3,18.9,51.5z"/>
		<path d="M22.9,52.1c0,3,0,4.5,0,6.1c-0.8-0.1-1.2-0.2-2.1-0.3c0-4,0-11.3,0-15.3c1.8-0.3,2.6-0.5,4.4-0.8c2.2-0.4,3.3,0.7,3.3,3.6
			c0,2.6-0.8,4.3-1.5,4.9c0.5,0.4,1.2,1.8,1.2,5.1c0,0.4,0,0.5,0,0.9c0,1.2,0,2.2,0.1,2.7c-0.8-0.1-1.2-0.2-2-0.3
			c-0.2-0.5-0.2-1.4-0.2-3.2c0-0.1,0-0.2,0-0.3c0-1.9-0.3-3.1-1.8-3.1C23.8,52.2,23.5,52.1,22.9,52.1z M22.9,48.9
			c0.7,0,1.1,0,1.8-0.1c1.2-0.1,1.6-1,1.6-2.6c0-1.5-0.5-2.2-1.6-2c-0.7,0.1-1.1,0.2-1.9,0.3C22.9,46,22.9,47,22.9,48.9z"/>
		<path d="M31.8,54.8c0.2,2.1,0.9,2.9,2,3c1.1,0.1,1.6-0.6,1.7-2.2c0-1.8-0.4-2.7-2.1-3.7c-2.7-1.6-3.3-3.9-3.3-6.5
			c0-3.5,1.4-4.8,3.7-5.2c2.6-0.5,3.6,1,3.7,4.3c-0.9,0.1-1.3,0.1-2.2,0.2c-0.1-1.3-0.4-2.5-1.7-2.3c-0.9,0.1-1.4,0.8-1.4,2.2
			c0,1.4,0.4,2,2,2.8c2.9,1.4,3.5,4.5,3.4,7.8c-0.1,4.3-1.5,5.2-4.1,4.8c-2.5-0.4-3.8-1.7-4-5.4C30.5,54.7,31,54.7,31.8,54.8z"/>
		<path d="M39.5,39.4c1.6-0.3,2.4-0.4,4-0.7c2.1-0.4,3.4,0.5,3.4,5.7c0,6-1.7,9.3-3.6,9.2c-0.8,0-1.1-0.1-1.9-0.1
			c0,4-0.1,5.9-0.1,7.5c-0.9-0.1-1.3-0.2-2.1-0.3C39.3,56.5,39.3,43.7,39.5,39.4z M41.4,48.8c0.6,0,1,0,1.6,0c1,0,1.7-1.3,1.7-4
			c0-2.7-0.7-3.3-1.6-3.2c-0.7,0.1-1,0.1-1.7,0.2C41.5,44.1,41.5,45.7,41.4,48.8z"/>
		<path d="M55,52c-1.8,0.1-2.7,0.1-4.6,0.1c0,3.2,0,4.8,0,7.1c2-0.3,3.1-0.4,5.1-0.7c-0.1,1.5-0.1,2.2-0.2,3c-2.8,0.4-4.1,1-7,0.6
			c0-4.4,0.1-19.9,0.1-24.2c2.7-0.5,3.9,0.1,6.6,0.6c0,0.8,0,1.4,0.1,2.9c-1.9-0.3-2.8-0.4-4.6-0.7c0,2,0,3.2,0,5.9
			c1.8,0.1,2.7,0.1,4.5,0.3C54.9,48.9,54.9,50,55,52z"/>
		<path d="M65.3,54.7c-0.3,4.2-1.6,5.7-4.1,6.1c-3.1,0.5-4.6-2.5-4.7-10.6c-0.1-7.8,1.2-11.3,4.4-10.8c2.6,0.4,3.9,2.4,4.2,6.2
			c-0.8-0.1-1.3-0.1-2.1-0.2c-0.2-1.8-0.8-3.3-2.1-3.5c-1.7-0.3-2.3,3.1-2.2,8.1c0.1,4.6,0.7,8.5,2.6,8.3c1.4-0.2,1.8-2.1,1.9-3.5
			C64,54.7,64.5,54.7,65.3,54.7z"/>
		<path d="M68.8,43.4c-1.2-0.2-1.8-0.3-3-0.4c0-1.3,0-1.9-0.1-2.6c3.3,0.6,4.9,0.8,8.2,1.4c0,0.7,0,1.2,0,2.4
			c-1.2-0.2-1.8-0.3-3-0.4c0.1,5.6,0.1,12,0.2,15.4c-0.8,0.1-1.3,0.2-2.1,0.3C69,56,69,49.2,68.8,43.4z"/>
		<path d="M77.4,42.4c0,4.1,0.1,11.7,0.1,15.8c-0.8,0.1-1.3,0.2-2.1,0.3c-0.1-4.1-0.1-12.4-0.2-16.5C76.1,42.1,76.6,42.2,77.4,42.4z
			"/>
		<path d="M82.2,57.5c-1.4-3.8-2.1-10.6-3.5-14.9c0.9,0.2,1.4,0.2,2.3,0.4c0.6,2,0.9,3.7,1.5,6.8c0.4,2.3,0.8,4.1,1,5.5c0,0,0,0,0,0
			c0.2-1.3,0.6-3.2,1.1-5.4c0.6-2.8,1-4.2,1.6-6c0.9,0.1,1.3,0.2,2.2,0.4c-1.5,3.7-2.3,8.7-3.7,12.9C83.7,57.3,83.2,57.3,82.2,57.5z
			"/>
		<path d="M96.3,51.1c-1.9,0.1-2.8,0.1-4.7,0.1c0,1.2,0,1.8,0,3c2.1-0.3,3.2-0.4,5.3-0.6c-0.1,0.7-0.2,1.1-0.3,1.8
			c-2.9,0.4-4.3,0.6-7.1,1.1c0.1-4,0.1-8.1,0.1-12c2.8,0.5,4.2,0.7,7,1.2c0,0.7,0,1,0,1.7c-1.9-0.3-2.9-0.4-4.9-0.7c0,1,0,1.5,0,2.5
			c1.9,0.1,2.8,0.2,4.7,0.3C96.3,50.1,96.3,50.4,96.3,51.1z"/>
	</g>
</g>
<g class="st1">
	<g class="st2">
		<path d="M21.1,43.8c2.1-0.7,3.2-1,5.3-1.5c3-0.8,4.1,1.2,4.1,3.5c0,2-0.7,3.2-1.6,3.8c0.8,0.4,1.9,1.7,1.9,4c0,3-1.7,4.9-4.3,4.3
			c-2.2-0.6-3.3-0.9-5.5-1.6C21.1,51.2,21.1,48.7,21.1,43.8z M26.1,48.4c1.3-0.1,1.8-0.8,1.8-2c0-1.2-0.7-1.7-1.7-1.5
			c-1,0.2-1.5,0.3-2.5,0.5c0,1.3,0,1.9,0,3.2C24.6,48.5,25.1,48.4,26.1,48.4z M23.7,54.6c1,0.2,1.4,0.3,2.4,0.4
			c1.4,0.2,2.1-0.5,2.1-1.9c0-1.3-0.6-2.2-2.1-2.2c-1,0-1.4,0-2.4-0.1C23.7,52.4,23.7,53.1,23.7,54.6z"/>
		<path d="M35.5,40.4c0,4.6,0,6.8,0,11.4c0,3.7,1.2,4.9,2.6,5c1.5,0.1,2.5-1.2,2.5-4.9c0-4.9,0-7.3,0-12.1c1.1-0.1,1.6-0.2,2.7-0.2
			c0,4.9,0,7.3,0,12.2c0,7.1-2.5,8.8-5.3,8.4c-2.8-0.4-5.2-2.5-5.2-8.6c0-4.3,0-6.4,0-10.7C33.9,40.7,34.4,40.6,35.5,40.4z"/>
		<path d="M46.1,39.4c1.1,0,1.6-0.1,2.7-0.1c0,7,0,10.5,0,17.5c2.5,0,3.8,0,6.3-0.1c-0.1,1.5-0.2,2.2-0.3,3.7
			c-3.5,0.2-5.2,0.2-8.7,0C46.1,52.1,46.1,47.9,46.1,39.4z"/>
		<path d="M67.3,59.1c-0.8,0.1-1.2,0.2-2,0.3c-0.1-0.6-0.2-1.2-0.2-1.8c-0.7,1.5-1.9,2.5-3.6,2.7c-3.6,0.4-5.7-4.1-5.7-10
			c0-6.3,2.2-11,6.1-10.5c3.2,0.4,5.1,3.5,5.4,6.6c-1.1-0.1-1.6-0.1-2.7-0.2c-0.3-1.3-0.9-2.9-2.7-3.1c-2.6-0.2-3.3,3.3-3.3,6.9
			c0,3.5,0.8,7,3.3,6.8c2.3-0.2,2.7-2.7,2.7-4.4c0-0.1,0-0.1,0-0.2c-1.1,0-1.6,0.1-2.7,0.1c0-1.4,0-2.1,0-3.5c2.2,0,3.2,0.1,5.4,0.1
			C67.3,53,67.3,55,67.3,59.1z"/>
		<path d="M78.3,50.9C76,51,74.8,51,72.5,51.1c0,1.6,0,2.4,0,4.1c2.6-0.4,3.9-0.6,6.4-1.1c-0.1,0.9-0.2,1.4-0.3,2.3
			c-3.4,1.1-5.2,1.5-8.7,2.3c0-6.9,0-10.3,0-17.1c3.5,0.7,5.2,1.2,8.7,2.3c0,0.9,0,1.3,0,2.2c-2.4-0.5-3.6-0.7-6.1-1.1
			c0,1.4,0,2.1,0,3.4c2.4,0.1,3.5,0.2,5.8,0.4C78.3,49.5,78.3,50,78.3,50.9z"/>
	</g>
</g>
<g class="st1">
	<g class="st2">
		<path d="M23.3,40.8c2,0.2,3,0.3,5.1,0.5c2.6,0.2,4.4,1.7,4.3,4.9c0,3.6-2.1,5.8-4.5,6.1c-0.9,0.1-1.4,0.2-2.3,0.3c0,3,0,4.5,0,6.4
			c-1,0.3-1.5,0.4-2.5,0.6C23.3,54.4,23.3,46,23.3,40.8z M25.9,49.1c0.8,0,1.2-0.1,2-0.1c1.2-0.1,2.1-0.9,2.1-2.7
			c0-1.8-0.9-2.4-2-2.5c-0.8,0-1.2-0.1-2.1-0.1C25.9,45.6,25.9,46.7,25.9,49.1z"/>
		<path d="M37.4,42c-0.1,4.6-0.1,9.7-0.2,14.4c-1.1,0.2-1.6,0.3-2.7,0.6c0.1-4.7,0.1-10.4,0.2-15.1C35.8,41.9,36.3,41.9,37.4,42z"/>
		<path d="M40.2,55.8c0-4.6,0.1-9,0.1-13.6c1.3,0.1,2,0.1,3.3,0.2c1.5,2.7,4.4,8,5,9.4c0,0,0,0,0,0c-0.1-1.3-0.1-3.5-0.1-5.6
			c0-1.5,0-2.2,0-3.7c1,0,1.5,0,2.4,0c0,4.9,0,7.6,0,12.4c-1.3,0-1.9,0-3.2,0c-1.3-2.3-4.5-8.3-5.2-9.9c0,0,0,0,0,0
			c0.1,1.2,0.1,4.1,0.1,6.5c0,1.6,0,2.5,0,3.9C41.7,55.5,41.2,55.6,40.2,55.8z"/>
		<path d="M64.4,52.3c-0.5,2.9-2.2,4-5.3,3.5c-4-0.6-5.9-3.4-5.9-7.1c0-3.6,1.9-6.5,5.9-6.8c3.3-0.2,4.9,1.5,5.2,4.1
			c-1.1,0-1.6,0-2.7,0c-0.3-1.1-1-2.2-2.6-2.1c-2.2,0.1-3,2.2-3,4.7c0,2.3,0.8,4.7,3.2,5c1.8,0.3,2.3-0.9,2.5-1.8
			C62.8,52.1,63.4,52.2,64.4,52.3z"/>
		<path d="M66.2,41.5c1.1-0.1,1.6-0.2,2.7-0.3c0,1.9,0.1,3.3,0.1,6.2c2,0,3,0.1,5,0.1c0-3.2,0-4.8-0.1-6.8c1.1-0.1,1.6-0.2,2.7-0.3
			c0,5.2,0,13.9,0,19.1c-1-0.2-1.5-0.4-2.6-0.6c0-2.2,0-4.1-0.1-7.7c-2-0.2-3-0.3-5-0.5c0,3.2,0.1,4.9,0.1,7
			c-1.1-0.3-1.6-0.4-2.7-0.6C66.4,52.4,66.4,46.2,66.2,41.5z"/>
	</g>
</g>
<g class="st1">
	<g class="st2">
		<path d="M13.4,62.3c-2.3-6.1-3.4-17.7-5.6-24.6c1.4,0.4,2.1,0.6,3.6,1c0.9,3.1,1.4,6,2.4,11.1c0.7,3.8,1.3,7,1.7,9.2c0,0,0,0,0,0
			c0.3-2,0.9-5.1,1.6-8.5c0.9-4.6,1.4-6.9,2.4-9.4c1.4,0.4,2.1,0.6,3.5,1c-2.2,5.2-3.3,14.2-5.5,20.2C15.8,62.3,15,62.3,13.4,62.3z"
			/>
		<path d="M26.2,58.3c-0.5,1.8-0.7,2.7-1.2,4c-1.3,0-2,0-3.3,0c2.1-5.9,3.1-14,5.2-19.2c1.7,0.4,2.6,0.7,4.3,1
			c2.3,6.2,3.5,12.4,5.7,18.1c-1.4,0-2.1,0-3.6,0c-0.5-1.3-0.8-2.1-1.3-3.8C29.7,58.4,28.5,58.4,26.2,58.3z M31.2,55.1
			c-1.2-4.3-1.9-7.2-2.3-8.9c0,0,0,0,0,0c-0.4,1.7-1.1,4.8-2,8.5C28.6,54.9,29.5,54.9,31.2,55.1z"/>
		<path d="M38.7,45.6c1.4,0.2,2.1,0.3,3.4,0.5c0,4.8,0,8.2,0,13.5c3.1,0,4.7,0,7.8-0.1c-0.2,1.1-0.2,1.7-0.4,2.8
			c-4.3,0-6.5,0-10.9,0C38.8,56.6,38.7,51.4,38.7,45.6z"/>
		<path d="M51.9,46.5c1.4,0,2-0.1,3.4-0.2c0,4.9,0,8,0,13.2c3.1,0,4.7,0,7.9,0c-0.2,1.2-0.2,1.7-0.4,2.7c-4.3,0-6.5,0-10.9,0
			C51.9,56.2,51.9,52.7,51.9,46.5z"/>
		<path d="M76,53.9c-3,0.3-4.5,0.5-7.5,0.8c0,2,0,3,0,4.8c3.3-0.1,5-0.1,8.3-0.2c-0.2,1.4-0.3,2-0.4,3c-4.5,0-6.7,0-11.2,0
			c0-5.7,0.1-11.7,0.1-17.3c4.5-0.9,6.8-1.4,11.2-2.7c0,1,0,1.7,0,3c-3.1,0.8-4.7,1.1-7.9,1.8c0,1.5,0,2.3,0,4
			c3-0.4,4.5-0.7,7.6-1.2C76,51.5,76,52.3,76,53.9z"/>
		<path d="M83.1,62.3c0-2.1,0-3.8,0.1-7.3c0-0.3,0-0.5-0.1-0.8c-2.1-5.9-3.2-9.3-5.3-12.3c1.5-0.4,2.3-0.7,3.8-1.1
			c1.2,1.9,2.7,6.5,3.5,9.2c0.7-2.8,2.4-8.7,3.6-11.3c1.4-0.4,2.1-0.6,3.5-1c-2.1,4.5-3.2,9.4-5.4,16.1c-0.1,0.2-0.1,0.3-0.1,0.8
			c0,3.7,0,5.5,0,7.7C85.2,62.3,84.5,62.3,83.1,62.3z"/>
	</g>
</g>
<g class="st1">
	<g class="st2">
		<path d="M17.4,40.3c2.2,0,3.3,0,5.4,0c3,0,4.1,1.6,4.1,3.8c0,1.9-0.8,3.5-1.6,4.2c0.8,0.4,1.9,1.6,1.9,3.9c0,3-1.7,5-4.3,5.8
			c-2.2,0.7-3.3,1-5.5,1.7C17.4,54.5,17.4,45.5,17.4,40.3z M22.5,47.1c1.3-0.1,1.8-1.1,1.8-2.4c0-1.3-0.7-1.9-1.7-1.9
			c-1,0-1.5,0.1-2.5,0.1c0,1.6,0,2.6,0,4.5C21,47.2,21.5,47.2,22.5,47.1z M20,56.3c1-0.3,1.4-0.4,2.4-0.6c1.4-0.4,2.1-1.3,2.1-3
			c0-1.5-0.6-2.4-2.1-2.2c-1,0.2-1.4,0.3-2.4,0.4C20,53.2,20,54.4,20,56.3z"/>
		<path d="M31.9,49.5c0,2.7,0,4-0.1,5.9c-1.1,0.3-1.6,0.4-2.6,0.7c0.1-4.8,0.1-11.2,0.2-15.9c2.2,0,3.3,0,5.5,0
			c2.7,0,4.2,1.4,4.1,3.5c0,1.9-0.9,3.1-1.8,3.6c0.6,0.2,1.5,1,1.5,3.4c0,0.3,0,0.4,0,0.7c0,0.9,0,1.9,0.2,2.4
			c-1,0.2-1.5,0.3-2.6,0.5C36,54,36,53.1,36,51.5c0-0.1,0-0.1,0-0.2c0-1.6-0.3-2.4-2.3-2.1C32.9,49.4,32.6,49.4,31.9,49.5z
			 M31.9,46.6c0.9-0.1,1.4-0.1,2.3-0.2c1.5-0.1,2-0.9,2.1-2.1c0-1.2-0.6-1.8-2-1.8c-0.9,0-1.4,0-2.3,0.1
			C31.9,44.1,31.9,44.9,31.9,46.6z"/>
		<path d="M43.9,40.3c0,4.6,0,8.2,0,12.8c-1.1,0.1-1.6,0.2-2.7,0.4c0-4.6,0-8.6,0.1-13.2C42.3,40.3,42.9,40.3,43.9,40.3z"/>
		<path d="M46.8,40.3c2,0,3,0,4.9,0c3.6,0,6,2.3,6,6.3c0,4-2.3,6.3-6.1,6.1c-1.9-0.1-2.9,0-4.8,0.1C46.8,48,46.8,45,46.8,40.3z
			 M49.5,50.5c0.8,0,1.2,0,2,0c2.4,0.1,3.4-1.6,3.4-4.1c0-2.2-1-4.1-3.4-4c-0.8,0-1.2,0-2,0C49.5,45.7,49.5,47.3,49.5,50.5z"/>
		<path d="M71,56.2c-0.8-0.2-1.2-0.3-2-0.5c-0.1-0.4-0.2-0.8-0.2-1.3c-0.7,0.8-1.9,0.9-3.6,0.5c-3.7-0.9-5.7-3.8-5.7-7.8
			c0-4.3,2.1-7,6-7c3.2,0,5.1,1.7,5.4,4.6c-1.1-0.1-1.6-0.1-2.7-0.2c-0.3-1.1-0.9-2.3-2.8-2.3c-2.6-0.1-3.3,2.3-3.2,5
			c0,2.6,0.9,5.1,3.4,5.6c2.3,0.5,2.7-1.3,2.7-2.8c0-0.1,0-0.1,0-0.2c-1.1-0.2-1.6-0.3-2.7-0.5c0-1.1,0-1.7,0-2.8
			c2.2,0.2,3.2,0.3,5.4,0.6C70.9,51.2,70.9,53.6,71,56.2z"/>
		<path d="M82,51.4c-2.3-0.4-3.5-0.6-5.8-1c0,2,0,3,0,4.8c2.6,0.7,3.9,1,6.4,1.7c-0.1,1.3-0.2,1.9-0.3,2.8c-3.4-1-5.1-1.6-8.6-2.6
			c-0.1-4.9-0.1-11.9-0.2-16.7c3.5,0,5.3,0,8.8,0c0,0.9,0,1.5,0,2.8c-2.5-0.1-3.7-0.1-6.2-0.2c0,1.4,0,2.3,0,4
			c2.4,0.3,3.5,0.4,5.9,0.6C82,49,82,49.8,82,51.4z"/>
	</g>
</g>
<g class="st1">
	<g class="st2">
		<path d="M3.4,33.7c1.7,0,2.5,0,4.2,0c3.1,0,5.1,4,5.1,8.9c0,4.8-2,9-5.3,8.4c-1.6-0.3-2.4-0.4-4.1-0.7C3.4,41.8,3.4,42.3,3.4,33.7
			z M5.6,47.3c0.7,0.1,1,0.2,1.7,0.3c2,0.3,2.9-2.1,3-5.2c0-2.6-0.8-5.2-2.9-5.3c-0.7,0-1,0-1.7,0C5.6,41.7,5.6,42.8,5.6,47.3z"/>
		<path d="M24.5,43.7c-0.1,5.4-1.9,10.1-5.4,9.6c-3.3-0.6-5-5.5-5-10.3c0.1-4.9,2-9.5,5.4-9.5C22.6,33.4,24.5,37.8,24.5,43.7z
			 M16.5,43.1c0,3.4,0.8,6.3,2.7,6.6c2.1,0.3,2.8-2.7,2.9-6.1c0-3.5-0.8-6.5-2.8-6.5C17.4,37,16.5,39.7,16.5,43.1z"/>
		<path d="M27.9,54.4c-1-8.9-1.5-12-2.5-20.7c1,0,1.5,0,2.5,0c0.9,10,1.3,13.8,1.4,16.1c0,0,0,0,0,0c0.4-3.8,1.6-10.9,2.2-16.1
			c0.8,0,1.2,0,2.1,0c0.5,4.2,1.5,12.7,1.9,16.8c0,0,0,0,0,0c0.4-4.8,1.5-13.4,1.9-16.8c0.9,0,1.4,0,2.3,0
			c-1.2,8.7-1.8,13.6-3.1,22.2c-1-0.2-1.5-0.2-2.4-0.4c-0.5-4.9-1.4-12-1.8-15.6c0,0,0,0,0,0c-0.4,3.8-1.5,10.7-2.1,15
			C29.4,54.7,28.9,54.6,27.9,54.4z"/>
		<path d="M40.8,56.6c0-8.7,0.1-14.1,0.1-22.9c1.1,0,1.7,0,2.9,0c1.3,4.9,3.8,15.3,4.3,18c0,0,0,0,0,0c-0.1-2.6-0.1-7-0.1-11
			c0-2.9,0-4.4,0-7c0.8,0,1.3,0,2.1,0c0,8.8,0,15.6,0,24.4c-1.1-0.2-1.7-0.3-2.8-0.5c-1.2-4.5-3.9-16.2-4.4-18.9c0,0,0,0,0,0
			c0.1,2,0.1,7,0.1,11.2c0,2.9,0,4.3,0,7C42.1,56.8,41.7,56.8,40.8,56.6z"/>
		<path d="M54.3,58.9c-1.1-9-1.7-16.4-2.8-25.2c1,0,1.5,0,2.5,0c1,10.1,1.5,17.1,1.6,19.9c0,0,0,0,0,0c0.4-4.6,1.4-14.6,2-19.9
			c0.8,0,1.2,0,2.1,0c0.6,4.2,1.7,15.6,2.1,20.6c0,0,0,0,0,0c0.3-5.9,1.3-17.1,1.7-20.6c0.9,0,1.4,0,2.3,0c-1.1,8.9-1.7,18-2.8,26.6
			c-1-0.2-1.5-0.2-2.4-0.4c-0.6-5-1.6-14.6-2-19.2c0,0,0,0,0,0c-0.4,4.7-1.3,14.2-1.9,18.5C55.8,59.1,55.3,59.1,54.3,58.9z"/>
		<path d="M68.5,55.5c-0.3,2.5-0.5,3.7-0.8,5.7c-0.9-0.2-1.4-0.2-2.3-0.4c1.4-8.6,2.1-18.1,3.5-27.1c1.2,0,1.7,0,2.9,0
			c1.5,9.6,2.5,19.3,4,28.9c-1-0.2-1.5-0.3-2.4-0.4c-0.4-2.1-0.6-3.4-0.9-6.1C70.9,55.8,70.1,55.7,68.5,55.5z M71.9,50.7
			c-0.8-6.6-1.3-10.7-1.6-13.1c0,0,0,0,0,0c-0.2,2.6-0.8,7.4-1.3,12.8C70.2,50.5,70.8,50.6,71.9,50.7z"/>
		<path d="M79.3,51.8c0,5.2,0,7.9,0.1,11.5c-0.9-0.2-1.4-0.2-2.3-0.4c-0.1-9.7-0.1-19.4-0.2-29.1c1.9,0,2.8,0,4.7,0
			c2.3,0,3.6,2.7,3.6,7.7c0,4.3-0.7,6.9-1.5,7.8c0.5,0.7,1.3,2.8,1.4,8.4c0,0.6,0,0.9,0,1.5c0,2,0,4,0.2,5.1
			c-0.9-0.2-1.3-0.2-2.2-0.4c-0.2-1-0.2-2.8-0.3-6.1c0-0.2,0-0.3,0-0.4c0-3.4-0.3-5.2-2-5.4C80.2,51.9,79.9,51.8,79.3,51.8z
			 M79.3,46.1c0.8,0.1,1.2,0.1,1.9,0.1c1.3,0.1,1.7-1.4,1.7-4.1c0-2.6-0.6-3.9-1.7-3.9c-0.8,0-1.2,0-2,0
			C79.3,41.1,79.3,42.8,79.3,46.1z"/>
		<path d="M87.2,33.8c1.7,0,2.5,0,4.2,0c3.1,0,5.2,4.7,5.2,15.8c0,10.9-1.9,16.4-5.2,15.8c-1.6-0.3-2.5-0.4-4.1-0.7
			C87.3,54.3,87.3,44,87.2,33.8z M89.7,60.4c0.7,0.1,1,0.2,1.7,0.3c2,0.3,2.9-4.1,2.9-11.3c0-6-0.9-10.9-3-10.9c-0.7,0-1,0-1.7,0
			C89.6,46.2,89.6,52.5,89.7,60.4z"/>
	</g>
</g>
</svg>
